<svg width="40" height="40" viewBox="0 0 40 40" fill="none" xmlns="http://www.w3.org/2000/svg">
<g opacity="0.06">
<path d="M0.477436 13.8811C0.752052 13.6358 2.35542 12.2355 4.31239 11.1698C3.88602 10.88 3.49236 10.5611 3.14735 10.2192C0.806736 7.89961 0.46283 2.53643 0.431328 1.93245C0.387341 1.08821 1.08857 0.384345 1.95038 0.427095C2.55973 0.458317 7.97138 0.799059 10.3121 3.1187C10.6583 3.4618 10.9798 3.85143 11.2722 4.27103C12.3474 2.33295 13.7591 0.7452 14.0066 0.473212C14.581 -0.158284 15.5812 -0.15719 16.1547 0.473212C16.4828 0.833731 18.8557 3.50455 19.7793 6.24109C19.7867 6.23284 19.7957 6.22291 19.8016 6.21635C20.3761 5.58493 21.3762 5.58586 21.9498 6.21635C22.2779 6.57686 24.6507 9.24759 25.5744 11.9842C25.5817 11.9761 25.5907 11.9661 25.5966 11.9595C26.1711 11.328 27.1712 11.3291 27.7448 11.9595C28.0728 12.32 30.4457 14.9907 31.3693 17.7274C31.3766 17.7193 31.3856 17.7093 31.3916 17.7026C31.9661 17.0711 32.9662 17.0722 33.5398 17.7026C33.9484 18.1517 37.5319 22.1851 37.5319 25.4655C37.5319 27.9383 36.2515 30.8158 34.4802 32.1451L39.5764 37.5532C40.1411 38.1129 40.1411 39.0204 39.5764 39.5802C39.2939 39.8601 38.9238 40 38.5538 40C38.1838 40 37.8135 39.8601 37.5312 39.5802L32.4353 34.1722C31.0936 35.9273 28.1904 37.1959 25.6958 37.1959C22.3857 37.1959 18.3159 33.6444 17.8627 33.2395C17.2255 32.6701 17.2267 31.679 17.8627 31.1106C17.8693 31.1045 17.8793 31.0957 17.8876 31.0885C15.1264 30.1731 12.4314 27.8214 12.0676 27.4964C11.4304 26.927 11.4316 25.9359 12.0676 25.3674C12.0742 25.3615 12.0843 25.3526 12.0926 25.3453C9.3313 24.43 6.63644 22.0783 6.27266 21.7532C5.63546 21.1838 5.63656 20.1927 6.27266 19.6243C6.27929 19.6184 6.2893 19.6095 6.29762 19.6022C3.53634 18.687 0.841385 16.3353 0.477608 16.0102C-0.159683 15.4407 -0.158665 14.4496 0.477436 13.8811ZM8.26681 5.14565C7.39447 4.28113 5.29171 3.73252 3.49847 3.46651C3.76689 5.24402 4.32045 7.32769 5.19271 8.1923C6.01638 9.0086 7.17403 9.55939 8.18699 9.81514C8.08815 9.35599 8.21773 8.8583 8.57768 8.50157C8.9384 8.14408 9.44195 8.01599 9.9061 8.11513C9.62962 7.03795 9.03326 5.90514 8.26681 5.14565ZM15.0797 3.70576C14.0018 5.14817 12.9071 7.00824 12.9071 8.23614C12.9071 10.4667 14.4326 12.5834 15.0808 12.7881C15.7711 12.57 17.2546 10.4256 17.2546 8.23614C17.2544 7.01304 16.1582 5.15078 15.0797 3.70576ZM20.8748 9.44889C20.0516 10.5504 18.7021 12.6108 18.7021 13.9793C18.7021 16.2266 20.2346 18.3286 20.8759 18.5311C21.5652 18.3133 23.0496 16.1702 23.0496 13.9793C23.0496 12.7562 21.9533 10.8939 20.8748 9.44889ZM26.6698 15.1919C25.8461 16.2942 24.4971 18.3541 24.4971 19.7223C24.4971 21.9617 26.0266 24.0707 26.6709 24.2742C27.3602 24.0564 28.8446 21.9132 28.8446 19.7223C28.8445 18.4994 27.7483 16.637 26.6698 15.1919ZM32.4658 30.0173C33.1552 29.7995 34.6396 27.6563 34.6396 25.4655C34.6396 24.2424 33.5433 22.3802 32.4648 20.9351C31.6411 22.0373 30.2922 24.0973 30.2922 25.4655C30.2922 27.7095 31.8234 29.8142 32.4658 30.0173ZM25.6957 34.3293C27.9024 34.3293 30.0686 32.8595 30.2888 32.175C30.0728 31.503 27.9163 30.0207 25.6957 30.0207C24.3207 30.0207 22.2423 31.3566 21.1244 32.176C22.5799 33.2444 24.4566 34.3293 25.6957 34.3293ZM19.9006 28.5862C22.1073 28.5862 24.2735 27.1164 24.4937 26.4319C24.2877 25.7916 22.1802 24.2776 19.9006 24.2776C18.5256 24.2776 16.4476 25.6133 15.3308 26.4319C16.7889 27.5007 18.6671 28.5862 19.9006 28.5862ZM14.1056 22.843C16.3123 22.843 18.4786 21.3731 18.6986 20.6888C18.493 20.0493 16.3645 18.5345 14.1056 18.5345C12.7305 18.5345 10.6524 19.87 9.53425 20.6898C10.9898 21.7581 12.8667 22.843 14.1056 22.843ZM8.31063 17.0999C10.5173 17.0999 12.6836 15.6302 12.9036 14.9456C12.6995 14.3104 10.5899 12.7913 8.31063 12.7913C7.07647 12.7913 5.19729 13.8778 3.73929 14.9466C5.19474 16.015 7.07163 17.0999 8.31063 17.0999Z" fill="#2A2A2A"/>
</g>
</svg>
