<svg width="135" height="111" viewBox="0 0 135 111" fill="none" xmlns="http://www.w3.org/2000/svg">
<path d="M114.336 23.0268C113.678 22.0833 112.619 21.5001 111.468 21.451L40.1325 18.3761C38.0858 18.2865 36.3754 19.8667 36.2879 21.9039C36.2009 23.9404 37.7785 25.661 39.8155 25.7485L106.322 28.6155L93.245 69.415H35.0531L24.5399 12.1712C24.3088 10.9166 23.4474 9.86997 22.2595 9.4039L5.04061 2.63932C3.14287 1.89633 1.00141 2.82847 0.256113 4.7239C-0.487901 6.62035 0.443983 8.76309 2.34069 9.50839L17.651 15.523L28.3498 73.7716C28.6723 75.5226 30.1984 76.7945 31.9795 76.7945H33.7543L29.7017 88.0512C29.3625 88.9941 29.5022 90.0413 30.0795 90.8605C30.656 91.6799 31.5935 92.1673 32.5944 92.1673H35.4368C33.6755 94.1276 32.5944 96.7086 32.5944 99.547C32.5944 105.651 37.5611 110.616 43.6637 110.616C49.7664 110.616 54.7331 105.651 54.7331 99.547C54.7331 96.7089 53.6519 94.1276 51.8909 92.1673H76.0249C74.2628 94.1276 73.1819 96.7086 73.1819 99.547C73.1819 105.651 78.1473 110.616 84.2512 110.616C90.3554 110.616 95.3206 105.651 95.3206 99.547C95.3206 96.7089 94.2397 94.1276 92.4789 92.1673H95.9357C97.6342 92.1673 99.0106 90.7907 99.0106 89.0927C99.0106 87.3942 97.634 86.0178 95.9357 86.0178H36.9694L40.2898 76.7934H95.9354C97.54 76.7934 98.9599 75.7568 99.4486 74.2302L114.823 26.2625C115.176 25.1677 114.995 23.9707 114.336 23.0268ZM43.664 104.468C40.9507 104.468 38.7441 102.262 38.7441 99.5483C38.7441 96.835 40.9507 94.6284 43.664 94.6284C46.3773 94.6284 48.5836 96.835 48.5836 99.5483C48.5836 102.262 46.3773 104.468 43.664 104.468ZM84.2512 104.468C81.5379 104.468 79.3316 102.262 79.3316 99.5483C79.3316 96.835 81.5379 94.6284 84.2512 94.6284C86.9645 94.6284 89.1708 96.835 89.1708 99.5483C89.1708 102.262 86.9645 104.468 84.2512 104.468Z" fill="#E0E0E0"/>
<path fill-rule="evenodd" clip-rule="evenodd" d="M95.7069 45.9131C94.1644 47.4945 91.6635 47.4945 90.121 45.9131C88.5785 44.3316 88.5785 41.7675 90.121 40.1861L102.452 27.5438L89.1569 13.9131C87.6144 12.3316 87.6144 9.76755 89.1569 8.18609C90.6994 6.60464 93.2002 6.60464 94.7427 8.18609L108.038 21.8169L121.157 8.36629C122.699 6.78483 125.2 6.78483 126.743 8.36629C128.285 9.94774 128.285 12.5118 126.743 14.0932L113.624 27.5438L125.954 40.1861C127.497 41.7675 127.497 44.3316 125.954 45.9131C124.412 47.4945 121.911 47.4945 120.368 45.9131L108.038 33.2708L95.7069 45.9131ZM108.038 43.2961L100.718 50.8007C96.4284 55.1986 89.3995 55.1986 85.1099 50.8007C80.9156 46.5004 80.9156 39.5988 85.1099 35.2985L92.6735 27.5438L84.1458 18.8007C79.9514 14.5004 79.9514 7.59878 84.1458 3.29846C88.4354 -1.09949 95.4642 -1.09949 99.7538 3.29846L108.038 11.7916L116.146 3.47865C120.435 -0.919298 127.464 -0.919294 131.754 3.47865C135.948 7.77897 135.948 14.6806 131.754 18.9809L123.402 27.5438L130.965 35.2985C135.16 39.5988 135.16 46.5004 130.965 50.8007C126.676 55.1986 119.647 55.1986 115.357 50.8007L108.038 43.2961Z" fill="#FCFCFC"/>
<path fill-rule="evenodd" clip-rule="evenodd" d="M90.121 45.9131C91.6635 47.4945 94.1644 47.4945 95.7069 45.9131L126.743 14.0932C128.285 12.5118 128.285 9.94774 126.743 8.36629C125.2 6.78483 122.699 6.78483 121.157 8.36629L90.121 40.1861C88.5785 41.7675 88.5785 44.3316 90.121 45.9131Z" fill="#E0E0E0"/>
<path fill-rule="evenodd" clip-rule="evenodd" d="M89.1569 8.18609C90.6994 6.60464 93.2002 6.60464 94.7427 8.18609L125.954 40.1861C127.497 41.7675 127.497 44.3316 125.954 45.9131C124.412 47.4945 121.911 47.4945 120.368 45.9131L89.1569 13.9131C87.6144 12.3316 87.6144 9.76755 89.1569 8.18609Z" fill="#E0E0E0"/>
</svg>
