<svg width="42" height="42" viewBox="0 0 42 42" fill="none" xmlns="http://www.w3.org/2000/svg">
<g opacity="0.06">
<path d="M35.3136 25.828C36.5554 25.1219 36.9215 24.808 37.5881 24.1412C40.5817 21.1468 41 16.5441 41 14.2297C41 13.419 40.9477 12.8959 40.9477 12.8175C40.8954 12.2945 40.4771 11.8891 39.9673 11.8368C39.6666 11.8106 32.686 11.1438 28.6467 15.1842C27.98 15.8642 27.4179 16.6226 26.9604 17.4725C26.2414 13.8766 24.7512 9.8885 21.7315 6.86797C14.7509 -0.101456 2.5937 1.04922 2.08389 1.10153C1.56099 1.15383 1.15575 1.57226 1.10347 2.08222C1.05118 2.59217 -0.112253 14.7527 6.86833 21.7352C9.88803 24.7557 13.8751 26.2464 17.4699 26.9656C16.6333 27.4101 15.8621 27.9855 15.1954 28.6393C11.143 32.6797 11.7966 39.6753 11.8358 39.963C11.8881 40.486 12.3064 40.8914 12.8162 40.9437C13.1169 40.9698 20.0975 41.6367 24.1368 37.5962C24.8035 36.9163 25.1956 36.4848 25.81 35.321C27.248 32.1044 27.3264 27.8155 27.3264 27.8155C27.3264 27.8155 31.4834 27.8547 35.3136 25.828ZM22.5812 36.0402C20.0582 38.5508 15.862 38.8123 13.9927 38.7861C13.9796 36.9163 14.228 32.7059 16.7379 30.1953C18.4504 28.4824 20.9602 27.8155 22.9734 27.5671C23.1956 27.5671 23.4178 27.5801 23.627 27.5801L16.6202 34.6019C16.1889 35.0334 16.1889 35.7395 16.6202 36.171C17.0516 36.6025 17.7575 36.6025 18.1889 36.171L25.1956 29.1623C25.1956 29.3715 25.2087 29.5807 25.2087 29.803C24.9603 31.8167 24.2937 34.3273 22.5812 36.0402ZM30.1892 16.7402C32.7122 14.2297 36.9084 13.9682 38.7777 13.9943C38.7908 15.8642 38.5424 20.0746 36.0325 22.5852C34.3201 24.2981 31.8102 24.965 29.7971 25.2134C29.5749 25.2134 29.3526 25.2003 29.1435 25.2003L36.1502 18.2047C36.5816 17.7732 36.5816 17.0671 36.1502 16.6356C35.7188 16.2041 35.0129 16.2041 34.5815 16.6356L27.5748 23.6443C27.5748 23.4351 27.5748 23.2259 27.5617 23.0036C27.8101 20.9899 28.4637 18.4663 30.1892 16.7402ZM25.3394 22.9774C25.3133 23.2389 25.2871 23.4874 25.2741 23.7358L18.3719 16.8318L17.9405 10.6077C17.9013 9.99311 17.3654 9.53545 16.764 9.58775C16.1496 9.62698 15.6921 10.1631 15.7444 10.7646L15.9928 14.452L10.9992 9.457C10.5678 9.02549 9.87495 9.02549 9.44357 9.457C9.01219 9.8885 9.01219 10.5815 9.44357 11.013L11.8096 13.3798L9.20827 13.5628C8.59388 13.602 8.13634 14.1382 8.18863 14.7396C8.22785 15.3542 8.76381 15.8119 9.36513 15.7596L13.8751 15.4457L23.7054 25.2788C23.457 25.2919 23.2087 25.318 22.9472 25.3442C19.0386 25.2134 12.5548 24.3112 8.41086 20.1661C3.22117 14.975 3.1166 6.10958 3.23425 3.23289C6.11014 3.11521 14.9731 3.23289 20.1628 8.41093C24.3067 12.569 25.2087 19.0547 25.3394 22.9774Z" fill="#2A2A2A" stroke="#2A2A2A" stroke-width="0.6"/>
</g>
</svg>
