<svg width="35" height="47" viewBox="0 0 35 47" fill="none" xmlns="http://www.w3.org/2000/svg">
<g opacity="0.06">
<path d="M32.9587 17.2783L31.9829 13.744L29.9265 14.2788C29.9355 12.9715 29.7643 11.6707 29.4114 10.3923L28.4356 6.85802L24.7942 7.80507C24.4871 7.88495 24.183 7.97547 23.8815 8.07426C23.2049 6.12683 22.0178 4.38505 20.1656 2.58727L17.4999 -1.30498e-06L14.8342 2.58727C12.982 4.38505 11.7949 6.12683 11.1183 8.07426C10.8168 7.97538 10.5126 7.88485 10.2055 7.80507L6.56421 6.85802L5.58846 10.3923C5.23553 11.6707 5.06431 12.9715 5.0733 14.2788L3.01691 13.744L2.04116 17.2783C1.52269 19.1565 1.39754 21.1179 1.66326 23.0369L9.02824e-07 23.0369L5.80584e-07 26.7229C-6.64482e-08 34.1241 5.64541 40.4545 13.2432 41.3762L13.2432 47L21.7568 47L21.7568 41.3762C29.3535 40.4547 35 34.1253 35 26.7229L35 23.0379L33.3366 23.0369C33.6023 21.1178 33.4771 19.1565 32.9587 17.2783V17.2783ZM30.2175 17.9911C30.6735 19.6431 30.7552 21.3741 30.4643 23.0551C28.1952 23.1668 25.9688 23.7911 23.9732 24.8498C23.6255 23.7137 23.136 22.6197 22.5207 21.5967C24.1614 19.5262 26.4591 18.0321 29.076 17.3515L29.9764 17.1173L30.2175 17.9911ZM13.4622 18.5141C13.9223 16.1783 15.1049 13.9964 16.8409 12.3114L17.4999 11.6718L18.1589 12.3114C19.8949 13.9964 21.0775 16.1782 21.5376 18.5141C21.2835 18.762 21.0383 19.0193 20.8023 19.2853C20.5973 19.0596 20.385 18.8399 20.1657 18.627L17.5 16.0396L14.8343 18.627C14.6149 18.84 14.4027 19.0597 14.1977 19.2853C13.9615 19.0193 13.7163 18.762 13.4622 18.5141ZM16.8409 20.5745L17.4999 19.9349L18.1589 20.5745C19.8232 22.1898 20.9834 24.2715 21.48 26.5015C21.1449 26.7744 20.8206 27.0609 20.5099 27.3625C19.2558 28.5798 18.2408 30.0126 17.4999 31.5737C16.759 30.0125 15.7439 28.5797 14.4899 27.3625C14.1792 27.0609 13.8549 26.7743 13.5198 26.5015C14.0164 24.2715 15.1766 22.1899 16.8409 20.5745V20.5745ZM25.5286 10.4655L26.429 10.2314L26.6702 11.1052C27.031 12.4121 27.1589 13.7478 27.0538 15.0866C25.9658 15.4732 24.9329 15.9773 23.9729 16.587C23.4892 15.0046 22.7323 13.5052 21.7401 12.1646C22.892 11.396 24.1808 10.8161 25.5286 10.4655V10.4655ZM16.8409 4.53489L17.4999 3.89523L18.1589 4.53489C19.7855 6.11361 20.7562 7.55617 21.2751 9.20337C20.7901 9.46899 20.3204 9.76049 19.8687 10.0758L17.4999 7.77651L15.1311 10.0758C14.6794 9.76049 14.2097 9.46899 13.7247 9.20337C14.2436 7.55616 15.2143 6.11361 16.8409 4.53489V4.53489ZM8.32953 11.1052L8.57074 10.2314L9.471 10.4655C10.819 10.8161 12.1077 11.396 13.2597 12.1647C12.2675 13.5052 11.5107 15.0047 11.0269 16.5871C10.0669 15.9773 9.03397 15.4732 7.94604 15.0867C7.84085 13.7478 7.96874 12.4121 8.32953 11.1052V11.1052ZM4.78223 17.9911L5.02345 17.1173L5.9238 17.3515C8.54076 18.0321 10.8383 19.5262 12.4791 21.5967C11.8637 22.6197 11.3743 23.7137 11.0266 24.8498C9.03104 23.7911 6.80457 23.1668 4.53553 23.0551C4.24456 21.3741 4.32619 19.6431 4.78223 17.9911V17.9911ZM2.83765 26.7229L2.83765 25.7913L3.7975 25.7913C7.01325 25.7913 10.179 27.0739 12.4831 29.3102C14.7695 31.5294 16.0808 34.6355 16.0808 37.8322L16.0808 38.7369L15.1488 38.7369C8.27854 38.7369 2.83765 33.3085 2.83765 26.7229ZM18.9187 44.2456L16.0809 44.2456L16.0809 41.4912L18.9187 41.4913L18.9187 44.2456ZM32.162 26.7229C32.162 33.3066 26.7236 38.7369 19.8508 38.7369L18.9187 38.7369L18.9187 37.8322C18.9187 34.6355 20.23 31.5293 22.5164 29.3102C24.8206 27.0739 27.9864 25.7913 31.2021 25.7913L32.162 25.7913L32.162 26.7229Z" fill="#2A2A2A"/>
</g>
</svg>
