<svg width="40" height="40" viewBox="0 0 40 40" fill="none" xmlns="http://www.w3.org/2000/svg">
<path opacity="0.06" d="M6.97082 9.35837C9.03125 8.82568 11.0917 8.35352 13.1762 7.91769L14.1763 14.5884C12.393 14.8547 10.7784 15.8233 9.69396 17.276C5.12727 23.3656 8.89871 37.276 9.33248 38.8257C9.52527 39.5157 10.1518 39.9879 10.8627 39.9879C10.935 39.9879 11.0073 39.9879 11.0796 39.9758C11.8628 39.8668 12.4412 39.1889 12.4533 38.4019C12.4533 33.2082 14.9957 29.6005 17.2248 26.6828C19.4539 29.6005 21.9963 33.2082 21.9963 38.4019C21.9963 39.201 22.5747 39.8789 23.3699 39.9879C23.4422 40 23.5145 40 23.5868 40C24.2977 40 24.9243 39.5278 25.1171 38.8378C25.5629 37.276 29.3343 23.3656 24.7556 17.2881C23.3579 15.4237 21.1408 14.3705 18.8153 14.4552C18.49 14.4552 17.8152 14.5036 17.5019 14.5884L16.4777 7.25183C20.8516 6.39227 20.1046 6.52544 24.5508 6.18646C25.4304 6.13803 26.1051 5.38743 26.0569 4.51576C26.0087 3.63198 25.2617 2.95401 24.3941 3.00244C19.1165 3.40196 19.0442 3.42617 13.863 4.51576C13.7546 4.52786 13.6461 4.55207 13.5497 4.58839C11.0796 5.07265 8.63362 5.62956 6.19966 6.2591C5.22367 6.51333 4.71759 7.60292 5.16342 8.51091C5.48875 9.18888 6.24786 9.55207 6.97082 9.35837ZM10.9591 30.7264C10.4169 26.4286 10.4049 21.6223 12.2243 19.2131C13.0196 18.1477 14.2968 17.5666 15.6222 17.6513C15.8271 17.6513 16.0198 17.724 16.1765 17.8572L16.1885 17.8693C16.2006 17.8814 16.2126 17.8935 16.2247 17.9056C16.4657 18.1114 16.6585 18.3777 16.791 18.6683C16.8151 18.7167 16.8392 18.7651 16.8513 18.8136C16.8754 18.862 16.9115 18.9588 16.9356 19.0315C16.9717 19.1404 17.0079 19.2494 17.032 19.3584C17.044 19.4189 17.0681 19.4673 17.0802 19.5157C17.1163 19.6731 17.1404 19.8305 17.1645 20.0121C17.1645 20.0484 17.1766 20.0848 17.1766 20.1211C17.2007 20.3632 17.2127 20.5932 17.2127 20.8354C16.9356 21.6586 16.5018 22.4334 15.9355 23.0993V23.1114C15.6704 23.4625 15.4053 23.8257 15.1282 24.1647C13.5015 26.1864 12.0918 28.3898 10.9591 30.7264ZM22.2132 19.2131C24.0326 21.6344 24.0206 26.4286 23.4904 30.7264C22.3698 28.3898 20.9601 26.1864 19.3214 24.1768L19.2129 24.0315C19.3937 23.7651 19.5503 23.4988 19.6949 23.2325C19.719 23.1961 19.731 23.1477 19.7551 23.1114C19.8636 22.9177 19.96 22.7119 20.0443 22.5182C20.0805 22.4455 20.1046 22.3729 20.1287 22.3002C20.1889 22.1308 20.2492 21.9613 20.2853 21.7797C20.2974 21.707 20.3215 21.6344 20.3456 21.5618C20.3937 21.3196 20.4178 21.0896 20.4178 20.8475C20.4178 20.3269 20.3697 19.8063 20.2853 19.2857C20.2612 19.1283 20.213 18.9831 20.1769 18.8378C20.1166 18.523 20.0323 18.2204 19.9238 17.9177C19.8997 17.8572 19.8997 17.7966 19.8756 17.7482C20.8155 17.9056 21.6589 18.4383 22.2132 19.2131Z" fill="#2A2A2A"/>
</svg>
