<svg width="112" height="39" viewBox="0 0 112 39" fill="none" xmlns="http://www.w3.org/2000/svg">
<path d="M8.98281 25.7732C9.2592 25.7732 9.2592 26.3282 8.89068 26.3282C7.60084 26.3282 6.0346 26.1432 4.74476 26.1432C3.45493 26.1432 2.07296 26.3282 0.783117 26.3282C0.414591 26.3282 0.414591 25.7732 0.783117 25.7732C2.16509 25.6807 3.0864 25.0332 3.0864 24.0157V6.99535C3.0864 5.23781 1.6123 4.03528 0.230328 3.94278C-0.0460657 3.94278 -0.138197 3.38777 0.32246 3.38777C1.6123 3.38777 2.99427 3.29527 4.28411 3.38777C6.40313 3.57277 6.58739 5.33031 6.58739 7.08785C8.43002 4.40529 10.6412 2.74026 14.2343 2.37025C20.4992 1.81524 22.9868 9.12289 18.7487 13.933C15.8005 17.2631 12.4838 17.8181 6.58739 18.0031V23.7382C6.58739 25.0332 7.60084 25.6807 8.98281 25.7732ZM16.9061 12.638C18.5645 8.66038 15.8005 3.94278 12.2995 4.40529C10.549 4.59029 7.87723 6.44033 6.58739 9.7704V16.708C10.549 16.6155 15.432 16.2455 16.9061 12.638Z" fill="white"/>
<path d="M52.6534 14.3956C52.1006 16.9857 49.2445 27.9009 40.8606 26.8834C36.9911 26.4209 34.7799 22.4433 33.4901 20.5008C32.016 18.1882 32.5688 17.4482 35.1484 16.0607C38.0045 14.4881 36.5304 7.92049 33.1215 8.66051C31.4632 9.03052 29.3442 11.2506 28.2386 13.7481V24.2933C28.2386 25.2184 29.0678 25.6809 30.1733 25.8659C30.4497 25.8659 30.4497 26.3284 30.1733 26.3284C29.0678 26.3284 27.7779 26.2359 26.7645 26.2359C25.751 26.2359 24.4612 26.3284 23.3556 26.3284C23.0792 26.3284 23.0792 25.8659 23.3556 25.8659C24.4612 25.7734 25.2904 25.2184 25.2904 24.2933V10.5105C25.2904 9.12302 24.0005 8.01299 22.8028 8.1055C22.6186 8.1055 22.5264 7.64299 22.895 7.64299C23.0792 7.64299 25.8432 7.55048 26.396 7.64299C27.9622 7.73549 28.2386 8.84551 28.2386 10.233V11.4356C29.7127 9.03052 31.9238 7.08798 34.6878 6.90297C40.2157 6.34796 41.6898 12.4531 37.9124 15.5982C36.3461 16.8007 35.3327 16.8932 35.517 17.8182C35.8855 19.3907 39.0179 25.3109 42.6111 25.4034C48.5075 25.5884 51.5478 15.4132 51.6399 12.8231L49.6131 9.30802C49.0603 8.4755 48.0468 7.64299 47.2176 7.55049C46.8491 7.55049 46.9412 6.99547 47.2176 6.99547C48.3232 6.99547 49.8894 6.99547 50.9029 7.08798C51.8242 7.18048 52.6534 8.1055 53.2983 9.30802L61.7744 24.2008C62.3272 25.2184 63.2485 25.5884 64.3541 25.8659C64.5383 25.8659 64.5383 26.3284 64.2619 26.3284C63.2485 26.3284 61.5901 26.2359 60.5767 26.2359C59.4711 26.2359 56.8914 26.3284 55.878 26.3284C55.6016 26.3284 55.6016 25.8659 55.878 25.8659C57.0757 25.7734 58.4577 25.1259 57.9049 24.0158L52.6534 14.3956Z" fill="white"/>
<path d="M73.752 17.9105L68.9612 24.0156C68.3163 24.8482 69.514 25.8657 70.7117 25.8657C70.9881 25.8657 70.9881 26.3282 70.6196 26.3282C69.6061 26.3282 68.3163 26.2357 67.2107 26.2357C66.1973 26.2357 64.8153 26.3282 63.8018 26.3282C63.3412 26.3282 63.4333 25.8657 63.7097 25.8657C64.7231 25.7732 66.1051 25.3107 66.9343 24.2932L72.9228 16.893L68.3163 10.4179C66.1973 7.73531 61.0379 -0.589863 55.3258 1.72268C54.9572 1.90769 54.8651 1.44518 55.2336 1.26018C62.6041 -2.5324 67.395 4.03523 70.7117 8.38282C72.0937 10.2329 73.3835 12.1754 75.0419 14.5804L78.7271 9.86285C79.2799 9.03034 78.5429 8.19782 77.253 8.19782C76.9766 8.19782 76.9766 7.73531 77.3451 7.73531C78.3586 7.73531 79.5563 7.82781 80.6619 7.82781C81.5832 7.82781 83.0573 7.73531 83.9786 7.73531C84.3471 7.73531 84.255 8.19782 83.9786 8.19782C83.0573 8.29032 81.3989 8.56783 80.5697 9.67785L75.7789 15.783C77.4373 18.0955 79.2799 20.5931 81.8596 23.8306C85.8212 28.5482 91.994 35.4859 97.5219 32.5258C97.7062 32.4333 97.9826 32.8033 97.614 32.9883C90.5199 38.1684 82.5966 30.3058 77.8979 24.0156L73.752 17.9105Z" fill="white"/>
<path d="M89.0447 9.40051C89.0447 8.4755 88.3077 8.10549 87.11 8.01299C86.9257 8.01299 86.8336 7.55048 87.2021 7.55048C88.2155 7.55048 89.5054 7.73548 90.611 7.73548C91.6244 7.73548 93.0064 7.55048 93.9277 7.55048C94.3883 7.55048 94.2962 8.01299 94.0198 8.01299C92.8221 8.10549 92.0851 8.568 92.0851 9.40051V24.2933C92.0851 25.1258 92.8221 25.6809 94.0198 25.7734C94.2041 25.7734 94.2041 26.2359 93.9277 26.2359C93.0064 26.2359 91.6244 26.1434 90.611 26.1434C89.5054 26.1434 88.2155 26.2359 87.2021 26.2359C86.8336 26.2359 86.9257 25.7734 87.11 25.7734C88.3077 25.6809 89.0447 25.1258 89.0447 24.2933V9.40051Z" fill="white"/>
<path d="M99.2714 27.0684C99.2714 27.2534 98.8107 27.2534 98.8107 26.9759C98.8107 26.5134 98.8107 25.8659 98.8107 24.8484C98.8107 23.6459 98.6265 22.8134 98.6265 21.8883C98.6265 21.5183 98.995 21.5183 99.0871 21.8883C99.3635 22.8134 100.008 23.7384 100.745 24.5709C101.483 25.3109 102.588 26.1434 104.523 26.1434C107.379 26.1434 109.314 24.2934 109.314 22.1658C109.314 17.8182 98.9029 18.5583 98.9029 11.8056C98.9029 8.84555 102.127 6.81051 105.168 6.81051C106.458 6.81051 107.471 6.99551 108.3 7.45802C109.037 7.92053 110.235 7.92053 110.419 6.99551C110.511 6.71801 110.88 6.71801 110.88 6.99551C110.88 7.45802 110.88 8.19804 110.88 9.21556C110.88 10.3256 110.972 11.2506 110.972 12.1756C110.972 12.5456 110.604 12.5456 110.511 12.2681C110.327 11.4356 109.682 10.5106 108.945 9.77057C107.84 8.47554 106.089 7.92053 105.076 7.92053C102.772 7.92053 101.667 9.40056 101.667 11.0656C101.759 15.7832 112.446 14.5807 111.986 21.7958C111.801 24.4784 109.59 27.4384 104.523 27.3459C102.496 27.3459 101.298 26.7909 100.469 26.5134C99.9163 26.0509 99.3635 26.5134 99.2714 27.0684Z" fill="white"/>
<path d="M25.7514 33.2657H27.4097C28.331 33.2657 28.8838 33.7283 28.8838 34.6533C28.8838 35.9483 27.9625 36.5033 26.6727 36.5033H26.5805V36.1333C27.594 36.1333 28.331 35.7633 28.331 34.6533C28.331 33.9133 27.8704 33.6358 27.1333 33.6358H26.1199L25.5671 38.5384H25.1064L25.7514 33.2657Z" fill="white"/>
<path d="M29.4355 37.7988C29.4355 37.7063 29.4355 37.6138 29.4355 37.4288L29.7119 34.3762H30.1726L29.8962 37.2438C29.8962 37.4288 29.8962 37.6138 29.8962 37.7988C29.8962 38.1688 29.9883 38.2613 30.2647 38.2613C30.8175 38.2613 31.3703 37.6138 31.6467 37.3363L31.9231 34.3762H32.3837L31.9231 38.4463H31.4624L31.5546 37.7063C31.2782 37.9838 30.7254 38.5388 30.0805 38.5388C29.6198 38.6313 29.4355 38.3538 29.4355 37.7988Z" fill="white"/>
<path d="M33.8578 34.4687H34.3184L34.2263 35.2087C34.4106 35.0237 35.0555 34.3762 35.6083 34.3762C35.7004 34.3762 35.7004 34.3762 35.7925 34.3762L35.7004 34.7462C35.6083 34.7462 35.6083 34.7462 35.6083 34.7462C35.2398 34.7462 34.5948 35.3012 34.2263 35.6712L33.9499 38.5388H33.4893L33.8578 34.4687Z" fill="white"/>
<path d="M35.793 37.1513C35.793 35.6712 36.4379 34.3762 37.7277 34.3762C38.3726 34.3762 38.649 34.7462 38.649 35.3012C38.649 35.8563 38.1884 36.1338 37.6356 36.3188L36.2536 36.8738C36.2536 36.9663 36.2536 37.0588 36.2536 37.1513C36.2536 37.8913 36.4379 38.3538 36.8064 38.3538C37.2671 38.3538 37.7277 38.1688 38.0963 37.9838L38.2805 38.3538C37.912 38.5388 37.4513 38.8163 36.8064 38.8163C35.9772 38.6313 35.793 37.9838 35.793 37.1513ZM37.5435 35.9488C37.912 35.7638 38.1884 35.5787 38.1884 35.3012C38.1884 34.9312 37.912 34.7462 37.6356 34.7462C36.7143 34.7462 36.3458 35.6712 36.2536 36.4113L37.5435 35.9488Z" fill="white"/>
<path d="M41.1372 34.4687H41.5058V35.2087C41.7822 34.9312 42.4271 34.3762 42.9799 34.3762C43.5326 34.3762 43.6248 34.6537 43.6248 35.1162C43.9012 34.8387 44.5461 34.3762 45.0989 34.3762C45.6517 34.3762 45.7438 34.5612 45.7438 35.0237C45.7438 35.2087 45.7438 35.3937 45.6517 35.6712L45.3753 38.6313H45.0068L45.2831 35.7637C45.2831 35.4862 45.3753 35.3012 45.3753 35.2087C45.3753 34.9312 45.2831 34.8387 44.9146 34.8387C44.6382 34.8387 43.7169 35.5787 43.6248 35.6712L43.3484 38.6313H42.8877L43.1641 35.7637C43.1641 35.4862 43.2563 35.3012 43.2563 35.2087C43.2563 34.9312 43.1641 34.8387 42.8877 34.8387C42.6113 34.8387 41.7822 35.5787 41.5979 35.6712L41.3215 38.6313H40.8608L41.1372 34.4687Z" fill="white"/>
<path d="M46.5732 37.5209C46.5732 36.3184 47.4024 34.4683 48.9687 34.4683C49.245 34.4683 49.5214 34.4683 49.6136 34.5608L49.1529 38.6309H48.6923L48.7844 37.7984C48.1395 38.3534 47.6788 38.7234 47.3103 38.7234C46.8496 38.6309 46.5732 38.1684 46.5732 37.5209ZM48.8765 37.2434L49.1529 34.8383C49.0608 34.8383 48.9687 34.8383 48.8765 34.8383C47.6788 34.8383 47.0339 36.4109 47.0339 37.4284C47.0339 37.8909 47.2182 38.2609 47.4946 38.2609C47.8631 38.2609 48.6923 37.5209 48.8765 37.2434Z" fill="white"/>
<path d="M51.2719 32.8958H51.6404L51.0876 38.5384H50.627L51.2719 32.8958Z" fill="white"/>
<path d="M52.6533 37.891C52.6533 37.7985 52.6533 37.706 52.6533 37.6134L52.9297 34.8384H52.377V34.4684H52.9297L53.0219 33.6359H53.4825V34.4684H54.7724V34.8384H53.4825L53.2061 37.5209C53.2061 37.6134 53.2061 37.7985 53.2061 37.891C53.2061 38.1685 53.2983 38.261 53.5747 38.261C53.8511 38.261 54.3117 38.076 54.496 37.9835L54.5881 38.3535C54.496 38.446 54.0353 38.631 53.5747 38.631C53.114 38.631 52.6533 38.7235 52.6533 37.891Z" fill="white"/>
<path d="M56.8901 38.4459L57.4429 32.8958H57.8115L57.6272 35.1159C57.9957 34.8384 58.5485 34.4683 59.1934 34.4683C59.7462 34.4683 60.0226 34.9309 60.0226 35.6709C60.0226 36.9659 59.3777 38.6309 57.8115 38.6309C57.4429 38.6309 57.1665 38.5384 56.8901 38.4459ZM59.6541 35.6709C59.6541 35.0234 59.4698 34.9309 59.1013 34.9309C58.6406 34.9309 57.9957 35.3009 57.6272 35.5784L57.3508 38.2609C57.6272 38.3534 57.7193 38.3534 57.9036 38.3534C59.1934 38.2609 59.6541 36.5959 59.6541 35.6709Z" fill="white"/>
<path d="M60.668 37.1513C60.668 35.6712 61.3129 34.3762 62.6027 34.3762C63.2476 34.3762 63.524 34.7462 63.524 35.3012C63.524 35.8563 63.0634 36.1338 62.5106 36.3188L61.1286 36.8738C61.1286 36.9663 61.1286 37.0588 61.1286 37.1513C61.1286 37.8913 61.3129 38.3538 61.6814 38.3538C62.1421 38.3538 62.6027 38.1688 62.9713 37.9838L63.1555 38.3538C62.787 38.5388 62.3263 38.8163 61.6814 38.8163C60.9444 38.6313 60.668 37.9838 60.668 37.1513ZM62.4185 35.9488C62.787 35.7638 63.0634 35.5787 63.0634 35.3012C63.0634 34.9312 62.787 34.7462 62.5106 34.7462C61.5893 34.7462 61.2208 35.6712 61.1286 36.4113L62.4185 35.9488Z" fill="white"/>
<path d="M63.8926 37.1513C63.8926 35.6712 64.5375 34.3762 65.8273 34.3762C66.4723 34.3762 66.7486 34.7462 66.7486 35.3012C66.7486 35.8563 66.288 36.1338 65.7352 36.3188L64.3532 36.8738C64.3532 36.9663 64.3532 37.0588 64.3532 37.1513C64.3532 37.8913 64.5375 38.3538 64.906 38.3538C65.3667 38.3538 65.8273 38.1688 66.1959 37.9838L66.3801 38.3538C66.0116 38.5388 65.5509 38.8163 64.906 38.8163C64.169 38.6313 63.8926 37.9838 63.8926 37.1513ZM65.6431 35.9488C66.0116 35.7638 66.288 35.5787 66.288 35.3012C66.288 34.9312 66.0116 34.7462 65.7352 34.7462C64.8139 34.7462 64.4454 35.6712 64.3532 36.4113L65.6431 35.9488Z" fill="white"/>
<path d="M67.7634 34.4687H68.224L68.1319 35.2087C68.3162 35.0237 68.9611 34.3762 69.5139 34.3762C69.606 34.3762 69.606 34.3762 69.6981 34.3762L69.606 34.7462C69.5139 34.7462 69.606 34.7462 69.5139 34.7462C69.1454 34.7462 68.5004 35.3012 68.1319 35.6712L67.8555 38.5388H67.3027L67.7634 34.4687Z" fill="white"/>
</svg>
