<svg width="521" height="697" viewBox="0 0 521 697" fill="none" xmlns="http://www.w3.org/2000/svg">
<g opacity="0.15">
<path d="M130.239 253.494L117.942 254.503L118.05 257.91L130.348 256.901L130.239 253.494Z" fill="white"/>
<path d="M97.1932 217.237L78.0459 214.679L77.5583 217.919L96.7056 220.477L97.1932 217.237Z" fill="white"/>
<path d="M71.8204 300.05L72.4312 302.748L83.4041 299.699L82.7934 297.001L71.8204 300.05Z" fill="white"/>
<path d="M395.023 391.956L419.759 425.168L422.392 423.197L397.656 389.984L395.023 391.956Z" fill="white"/>
<path d="M281.111 109.124L280.541 91.9941L277.875 92.211L278.446 109.341L281.111 109.124Z" fill="white"/>
<path d="M427.525 241.472L454.972 239.377L454.822 235.695L427.375 237.79L427.525 241.472Z" fill="white"/>
<path d="M167.453 251.068L135.46 253.466L135.619 257.211L167.612 254.813L167.453 251.068Z" fill="white"/>
<path d="M227.258 117.046L224.632 118.624L226.772 123.629C227.744 123.114 228.665 122.91 229.637 122.396L227.258 117.046Z" fill="white"/>
<path d="M224.03 110.619L214.91 90.6162L211.891 92.0512L221.011 112.054L224.03 110.619Z" fill="white"/>
<path d="M405.805 189.204L406.971 191.702L437.771 176.769L436.605 174.271L405.805 189.204Z" fill="white"/>
<path d="M125.661 322.912L126.716 325.595L157.753 309.263C158.301 307.733 158.799 306.516 159.347 304.986L125.661 322.912Z" fill="white"/>
<path d="M166.526 136.306L149.957 121.397L147.791 123.808L164.36 138.716L166.526 136.306Z" fill="white"/>
<path d="M409.389 113.456L407.28 111.559L380.363 141.546L382.472 143.443L409.389 113.456Z" fill="white"/>
<path d="M454.141 205.343L453.539 202.713L436.978 207.256L437.58 209.886L454.141 205.343Z" fill="white"/>
<path d="M485.912 197.16L485.343 194.584L463.146 200.423L463.715 202.998L485.912 197.16Z" fill="white"/>
<path d="M252.497 103.526L237.992 43.5029L234.242 44.4681L248.747 104.491L252.497 103.526Z" fill="white"/>
<path d="M347.006 92.5847L344.28 91.6169L328.625 134.548C329.376 135.263 330.126 135.979 330.877 136.695L347.006 92.5847Z" fill="white"/>
<path d="M388.074 79.22L385.705 77.678L348.943 141.732C349.749 142.144 350.555 142.556 351.646 143.004L388.074 79.22Z" fill="white"/>
<path d="M319.537 36.4821L316.75 36.0977L303.708 125.46C304.544 125.575 305.703 125.428 306.539 125.543L319.537 36.4821Z" fill="white"/>
<path d="M472.642 274.55L473.106 271.295L386.522 259.059C386.382 260.035 386.197 261.337 386.358 262.356L472.642 274.55Z" fill="white"/>
<path d="M443.203 303.562L444.297 300.422L385.785 279.701C385.635 280.667 385.734 281.992 385.833 283.318L443.203 303.562Z" fill="white"/>
<path d="M379.15 146.749L377.136 144.609L368.696 154.639C369.855 154.78 371.014 154.921 371.833 155.336L379.15 146.749Z" fill="white"/>
<path d="M426.125 211.914L425.402 208.915L387.759 220.073C387.901 221.06 387.698 222.327 387.84 223.314L426.125 211.914Z" fill="white"/>
<path d="M418.965 241.007L418.871 237.724L388.122 240.325C387.972 241.287 387.771 242.569 387.918 243.569L418.965 241.007Z" fill="white"/>
<path d="M101.469 384.731L103.146 387.151L141.713 356.065C141.968 354.513 142.512 352.996 142.767 351.444L101.469 384.731Z" fill="white"/>
<path d="M390.28 386.452L392.662 384.531L383.822 371.773C383.807 373.666 383.844 375.249 383.54 377.107L390.28 386.452Z" fill="white"/>
<path d="M408.43 358.166L410.596 355.876L384.743 331.323C384.539 332.576 384.576 334.177 384.371 335.43L408.43 358.166Z" fill="white"/>
<path d="M96.3769 295.162L97.1015 298.165L168.689 276.668C169.188 275.436 169.392 274.167 169.891 272.935L96.3769 295.162Z" fill="white"/>
<path d="M174.976 91.7933L172.584 93.7209L200.644 134.21C201.378 133.349 201.821 132.452 202.556 131.591L174.976 91.7933Z" fill="white"/>
<path d="M107.521 218.925L107.056 222.18L182.805 232.86C183.245 231.925 183.431 230.623 183.871 229.689L107.521 218.925Z" fill="white"/>
<path d="M109.609 138.173L107.969 140.883L193.397 193.333C193.896 192.1 194.048 191.147 194.497 190.231L109.609 138.173Z" fill="white"/>
<path d="M126.451 188.393L125.358 191.534L188.204 213.816C188.652 212.889 188.851 211.602 189 210.636L126.451 188.393Z" fill="white"/>
<path d="M174.471 251.264L174.543 254.429L176.331 254.331C176.773 253.438 176.975 252.2 177.467 250.997L174.471 251.264Z" fill="white"/>
<path d="M386.871 175.728L446.315 127.815L444.637 125.392L386.218 172.479C386.356 173.447 386.494 174.414 386.341 175.346C386.581 175.692 386.871 175.728 386.871 175.728Z" fill="white"/>
<path d="M282.488 130.055L282.028 116.61L279.088 116.865L279.401 131.225C280.636 130.757 281.587 130.253 282.488 130.055Z" fill="white"/>
<path d="M256.132 117.651L254.913 112.438L252.096 113.362L252.887 117.573C254.099 117.404 254.97 117.51 256.132 117.651Z" fill="white"/>
<path d="M188.495 156.663L172.498 141.305L170.333 143.594L187.399 159.721C187.552 158.782 187.706 157.843 188.495 156.663Z" fill="white"/>
<path d="M386.119 301.925C385.915 303.195 386.008 304.502 385.855 305.454L463.599 353.045L465.24 350.335L386.119 301.925Z" fill="white"/>
<path d="M208.94 171.534C207.039 170.673 204.233 170.012 202.903 169.223C200.481 167.985 198.825 165.596 197.839 162.667C197.04 160.384 196.862 157.867 198.111 155.527C198.16 155.222 198.495 154.952 198.593 154.34C201.957 147.898 205.321 141.455 208.97 135.049C210.268 132.403 212.325 130.476 214.146 128.208C216.3 125.67 219.165 124.155 222.208 125.158C224.443 125.748 226.303 125.044 228.548 123.764C233.321 121.24 238.046 119.021 242.771 116.802C248.451 114.079 254.407 113.261 260.501 113.396C267.453 113.638 273.391 116.561 278.75 121.282C280.503 123.06 282.542 124.873 284.246 126.956C285.487 126.487 287.013 126.053 288.302 125.278C293.696 122.519 299.514 120.749 305.135 120.201C314.282 119.469 323.035 121.182 330.246 127.07C331.763 128.506 333.614 129.672 334.846 131.073C336.363 132.509 338.027 133.029 339.789 132.936C340.695 132.737 341.551 132.844 342.457 132.645C349.457 132.581 355.445 135.197 359.367 141.611C361.683 145.33 364.627 146.944 368.339 147.406C371.766 147.833 374.809 148.835 377.753 150.45C382.313 152.889 384.865 156.949 385.124 162.595C385.214 163.853 385.303 165.112 385.392 166.37C386.623 167.771 388.337 167.984 390.001 168.504C396.087 170.509 400.303 175.088 403.083 181.36C405.439 186.643 405.175 191.912 402.244 197.472C401.428 198.93 400.66 200.082 399.844 201.54C396.873 205.536 393.576 207.932 389.105 206.752C388.534 206.681 386.584 206.126 385.728 206.02C385.937 211.971 385.527 218.158 385.786 223.803C385.938 231.931 381.406 263.801 381.558 271.929C381.888 282.573 377.606 341.919 377.651 352.528C377.665 359.703 377.629 367.183 377.357 374.323C376.822 386.731 375.667 399.374 373.655 411.91C372.281 420.471 369.814 428.584 366.776 436.626C362.243 448.537 356.381 459.658 348.479 468.966C343.117 475.159 337.281 480.67 331.021 485.193C319.89 492.851 308.383 499.215 296.217 504.249C289.011 507.407 281.708 511.175 274.877 515.627C264.798 522.169 257.468 531.548 252.364 543.387C248.657 551.97 246.663 560.766 245.762 570.009C245.008 578.336 243.701 602.811 246.57 610.341C247.744 613.918 250.256 616.414 252.768 618.91C259.88 625.409 267.759 630.756 276.504 634.34C283.87 637.44 291.522 640.576 298.937 643.37C300.316 643.854 301.458 643.996 302.788 644.785C303.832 645.539 305.161 646.328 305.871 647.352C307.526 649.741 306.366 653.339 304.073 654.925C302.449 655.97 300.874 656.71 299.348 657.144C295.39 658.21 291.482 658.971 287.623 659.426C278.713 660.5 270.089 661.609 261.228 662.377C257.989 662.598 254.464 662.783 250.989 662.662C234.655 662.811 218.566 661.432 202.772 658.218C195.731 656.717 188.878 655.864 181.887 654.058C172.089 651.591 161.957 649.394 152.355 645.703C149.598 644.736 146.939 643.158 144.231 641.885C141.808 640.648 139.532 638.493 137.543 636.374C134.134 632.207 135.695 624.293 141.277 622.181C142.851 621.442 144.663 621.043 146.189 620.61C151.003 619.65 156.004 619.337 161.006 619.024C170.723 618.362 180.441 617.701 190.069 615.781C196.409 614.387 201.379 610.64 205.216 604.88C210.971 596.241 217.19 570.194 219.193 559.528C223.15 538.502 218.188 520.42 208.314 503.909C204.865 498.177 200.698 493.292 195.812 489.253C189.173 483.437 182.869 477.35 176.997 470.382C169.894 462.013 163.077 453.679 157.312 444.229C152.159 436.414 148.295 427.824 145.72 418.46C144.132 412.025 143.734 405.426 143.672 398.557C143.578 388.254 144.675 377.787 146.343 367.391C148.396 356.419 150.97 345.824 155.257 335.442C159.112 325.942 162.444 316.066 166.299 306.566C173.968 286.002 199.602 202.494 205.991 180.834C207.378 179.448 207.74 173.567 208.94 171.534ZM223.133 201.057C222.04 200.609 221.232 200.197 220.425 199.784C216.672 197.758 214.308 194.345 212.996 189.815C211.871 185.933 212.224 181.922 212.576 177.912C212.871 176.077 213.883 173.397 214.129 171.868C212.848 170.773 213.344 176.76 212.576 177.912C208.003 188.258 205.077 202.863 201.075 213.28C193.464 231.669 170.596 314.274 163.27 332.698C161.874 335.954 160.763 339.247 159.652 342.539C153.95 359.917 151.055 377.957 150.159 396.246C149.838 403.691 149.851 410.865 151.627 417.948C154.34 428.265 158.628 437.843 164.303 446.035C168.845 452.214 173.102 458.358 177.979 464.267C183.85 471.235 190.056 477.933 196.646 484.056C202.241 489.118 207.836 494.181 212.329 500.666C223.917 517.39 229.017 536.426 225.434 558.746C223.717 569.448 217.735 595.836 211.93 604.781C208.428 610.27 204.315 614.124 199.206 616.919C196.007 618.704 192.286 620.112 188.998 620.638C184.853 621.057 180.945 621.818 176.8 622.238C169.987 622.949 162.889 623.624 156.027 624.641C155.456 624.57 154.599 624.463 154.354 625.992C154.876 626.369 155.398 626.746 155.969 626.817C163.098 629.576 170.375 631.418 177.75 632.648C187.075 634.433 196.164 635.876 205.587 637.049C215.866 638.329 225.958 638.962 236.287 639.936C238.857 640.256 241.19 640.235 243.809 640.249C248.142 640.476 252.237 640.363 256.57 640.59C257.712 640.732 259.238 640.298 260.656 642.346C259.465 642.51 258.51 643.015 257.654 642.908C253.272 642.986 248.891 643.065 244.559 642.837C238.179 642.666 232.084 642.531 225.753 642.055C207.38 640.391 189.538 637.234 171.411 634.042C163.75 632.776 155.902 630.863 149.116 625.964C148.072 625.21 146.929 625.068 145.689 625.537C143.543 626.206 141.683 626.91 139.961 628.566C138.957 629.377 138.711 630.906 139.372 632.236C139.845 632.918 140.318 633.601 141.076 634.319C144.248 638.145 148.335 639.901 152.757 641.387C163.215 645.184 173.967 647.147 184.907 649.756C191.091 651.15 197.039 652.202 203.271 653.29C220.02 655.999 236.966 657.485 254.156 657.442C257.632 657.563 260.871 657.343 264.445 656.852C270.923 656.411 277.45 655.665 283.643 655.188C288.693 654.57 293.695 654.257 298.754 651.768C299.375 651.533 300.329 651.028 301.619 650.253C300.24 649.77 299.147 649.322 298.339 648.909C295.395 647.295 292.539 646.94 289.577 649.066C288.957 649.3 288.336 649.535 287.716 649.77C286.811 649.969 285.856 650.474 285.432 649.485C285.057 648.191 285.963 647.992 286.918 647.487C287.538 647.253 288.493 646.748 289.113 646.513C288.925 645.866 288.689 645.525 288.452 645.183C285.459 643.875 282.75 642.602 279.757 641.294C278.663 640.846 277.472 641.01 276.232 641.479C273.18 642.346 269.843 643.178 266.791 644.046C266.171 644.28 265.314 644.174 264.743 644.103C264.458 644.067 263.985 643.385 264.034 643.079C264.083 642.773 264.516 641.891 264.85 641.621C265.47 641.386 266.091 641.152 266.947 641.258C268.759 640.86 270.235 640.732 272.047 640.334C272.667 640.099 273.336 639.559 274.291 639.054C265.31 635.129 258.001 629.853 250.791 623.965C247.994 621.434 245.245 618.597 243.835 614.679C239.882 604.83 241.01 577.838 242.255 566.454C243.294 558.163 245.761 550.05 248.75 542.313C253.952 529.862 261.903 520.249 272.553 513.778C280.909 508.893 289.551 504.043 298.233 500.758C299.808 500.019 301.383 499.279 302.958 498.54C311.216 494.266 319.238 489.651 327.073 484.389C331.659 481.218 335.96 478.011 339.837 473.816C355.631 457.07 365.299 436.754 369.314 413.552C371.611 401.052 372.432 388.679 373.016 375.965C373.435 367.909 373.283 359.781 373.131 351.654C372.948 340.092 381.156 256.285 380.923 245.029C380.584 236.254 381.681 225.787 381.619 218.918C381.579 217.354 381.302 215.448 381.025 213.543C373.32 221.628 367.306 224.621 358.717 218.25C358.097 218.485 357.763 218.755 357.379 219.331C349.348 225.816 339.729 225.866 332.233 219.943C331.711 219.566 330.904 219.153 330.145 218.435C328.61 220.739 327.41 222.773 325.925 224.771C324.439 226.769 322.953 228.767 321.231 230.424C318.456 233.197 315.168 233.723 312.174 232.415C309.18 231.106 308.194 228.177 308.163 224.742C308.132 221.308 308.386 217.909 308.689 214.204C308.747 212.028 309.711 209.654 309.247 207.101C308.055 207.264 307.199 207.158 306.293 207.357C302.719 207.847 299.097 208.644 295.523 209.134C289.852 209.988 284.81 208.736 280.014 205.956C275.37 211.303 270.163 214.709 263.783 214.539C262.926 214.432 261.873 215.548 261.204 216.089C259.817 217.476 256.528 218.002 253.24 218.528C247.146 218.393 231.231 210.486 231.231 210.486L223.133 201.057ZM239.186 209.917C239.186 209.917 256.252 216.096 257.688 214.404C259.223 212.1 261.084 211.396 263.466 211.069C269.324 210.863 273.674 207.35 276.605 201.789C276.239 198.625 275.775 196.072 275.646 193.249C275.566 190.121 276.578 187.44 278.399 185.172C278.782 184.596 279.737 184.091 280.308 184.162C280.879 184.233 281.401 184.61 282.494 185.058C279.286 188.713 278.983 192.417 279.773 196.57C280.563 200.723 282.307 204.37 287.211 204.669C285.604 201.974 284.186 199.926 283.101 197.608C282.205 195.937 282.213 194.067 282.557 191.927C282.606 191.621 282.941 191.351 283.226 191.386C283.226 191.386 283.512 191.422 283.797 191.457C283.985 192.104 284.458 192.787 284.645 193.434C287.416 201.576 293.493 205.451 301.309 203.929C303.121 203.531 304.932 203.133 306.744 202.735C308.506 202.642 310.268 202.55 311.696 202.728C313.98 203.012 314.877 204.683 314.77 207.165C314.574 208.388 314.378 209.611 314.23 210.528C313.789 213.28 313.298 216.338 312.856 219.089C312.7 221.877 312.879 224.394 313.008 227.217C313.048 228.781 314.378 229.571 315.667 228.795C317.291 227.75 318.581 226.975 319.968 225.589C321.74 223.626 322.989 221.287 324.809 219.018C326.295 217.02 327.495 214.986 329.266 213.024C330.033 211.872 331.796 211.779 332.505 212.803C332.742 213.145 333.264 213.522 333.451 214.169C336.142 219.182 340.661 220.056 345.663 219.743C346.568 219.544 347.523 219.039 349.098 218.3L354.599 213.059C357.129 211.815 358.565 210.123 359.056 207.065C359.212 204.278 359.703 201.22 360.145 198.468C360.341 197.245 361.197 197.352 362.576 197.835C362.706 200.658 362.786 203.787 363.201 206.645C363.379 209.163 363.558 211.68 364.071 213.927C364.772 216.821 365.816 217.575 368.484 217.283C369.675 217.119 370.915 216.65 371.821 216.451C375.542 215.043 378.603 212.305 381.19 208.885C383.01 206.617 383.974 204.242 383.559 201.383C383.332 199.172 383.439 196.69 383.497 194.514C383.644 193.597 383.791 192.68 385.268 192.552C387.021 194.33 388.44 196.377 388.806 199.542C388.846 201.106 389.457 202.742 391.023 203.872C393.022 204.121 394.459 202.429 395.895 200.736C398.434 197.622 399.83 194.365 400.665 189.167C398.844 191.435 397.93 193.505 396.542 194.891C395.106 196.584 393.433 197.935 390.626 197.273C391.728 195.851 392.545 194.394 393.312 193.242C395.378 189.445 396.301 185.505 395.797 181.388C395.382 178.53 394.78 175.024 392.357 173.787L378.856 168.987C378.619 168.646 378.668 168.34 378.383 168.305C378.146 167.963 377.861 167.928 377.575 167.892C374.01 166.513 370.575 167.956 367.327 170.047C366.372 170.552 365.418 171.056 364.463 171.561C364.177 171.526 363.892 171.49 363.655 171.149C363.419 170.808 363.468 170.502 363.517 170.196C363.901 169.62 364.235 169.35 364.619 168.774C368.732 164.92 373.073 163.277 377.928 163.882C379.07 164.024 380.35 165.119 382.023 163.768C382.238 158.805 380.158 155.427 376.357 153.706C368.469 150.229 360.514 150.798 352.728 155.754C351.439 156.529 350.435 157.34 349.146 158.115C348.811 158.385 348.289 158.008 348.289 158.008C348.053 157.667 347.914 156.714 348.249 156.444C350.167 153.564 352.746 152.014 355.325 150.464C356.9 149.724 358.14 149.255 359.715 148.516C358.06 146.126 356.641 144.078 354.937 141.995C352.523 138.888 349.578 137.274 345.768 137.423C344.291 137.551 343.149 137.409 341.672 137.537C337.291 137.615 333.44 136.2 330.17 132.986C329.933 132.645 329.411 132.268 329.175 131.926C324.91 127.653 320.015 125.484 314.304 124.773C309.115 124.439 303.73 125.328 298.769 127.205C294.428 128.848 290.372 130.526 285.982 132.474C285.54 135.226 285.384 138.013 284.894 141.071C284.746 141.988 284.077 142.529 283.27 142.116C282.699 142.045 282.177 141.668 282.275 141.057C281.762 138.81 281.534 136.598 281.021 134.351C280.182 130.505 278.388 127.163 275.925 124.361C269.907 118.31 262.964 116.198 254.527 117.954C245.805 119.675 238.118 124.02 230.381 128.67C229.712 129.211 228.994 130.057 228.61 130.633C227.981 132.738 227.352 134.842 226.772 136.641C226.674 137.253 226.527 138.17 226.429 138.782C226.38 139.087 225.71 139.628 225.09 139.862C224.805 139.827 223.997 139.415 223.761 139.073C223.288 138.391 223.1 137.744 223.198 137.132C223.207 135.262 223.216 133.392 223.796 131.593C224.09 129.758 223.618 129.076 222.141 129.204L212.803 140.204C212.517 140.168 212.468 140.474 212.183 140.439C208.248 146.81 207.431 148.267 212.259 154.482C209.533 156.95 208.074 153.337 206.075 153.088C203.251 156.167 202.818 157.049 204.375 160.05C204.563 160.697 205.036 161.38 205.509 162.062C207.588 165.44 210.247 167.018 213.624 167.751C216.716 168.447 219.246 167.203 221.637 165.006C222.307 164.465 222.927 164.231 224.551 163.186C224.02 164.679 223.873 165.596 223.538 165.866C222.436 167.288 221.383 168.405 220.281 169.827C219.563 170.673 218.894 171.214 218.746 172.131C217.627 177.293 216.507 182.456 216.864 187.49C217.23 190.654 217.93 193.548 219.635 195.632C221.339 197.715 223.24 198.575 225.859 198.59C226.716 198.696 227.425 199.72 228.232 200.133L234.055 207.407L239.186 209.917Z" fill="white"/>
<path d="M151.296 360.812C153.115 352.712 154.98 344.309 157.641 336.319C161.329 325.376 165.533 314.808 170.532 304.653C187.26 270.399 195.685 215.607 200.311 206.02C201.665 202.8 203.535 199.956 205.124 197.076C205.498 196.507 206.387 196.314 206.902 196.691C207.464 196.764 207.605 197.709 207.466 198.617C207.373 199.222 206.952 200.094 206.859 200.699C206.345 202.176 205.551 203.616 205.084 204.791C199.057 217.9 191.802 272.536 170.868 313.651C165.589 325.623 161.621 338.383 157.934 351.18C156.488 356.858 154.808 362.197 153.081 367.839C153.034 368.142 152.379 368.674 151.818 368.6C151.537 368.564 151.022 368.188 150.787 367.848C150.553 367.509 150.646 366.903 150.739 366.298C150.784 364.142 151.017 362.629 151.296 360.812Z" fill="white"/>
<path d="M195.507 466.726C196.604 467.53 198.049 468.05 199.097 469.177C206.978 475.488 215.8 479.619 224.77 482.782C234.885 486.425 245.246 488.455 255.753 489.515C262.377 490.062 269.245 488.995 275.863 487.566C279.297 487.032 282.781 486.176 286.562 485.359C287.508 485.155 288.703 485.313 289.649 485.109C290.153 487.81 290.104 488.133 288.811 488.62C286.523 489.635 283.936 490.61 281.697 491.301C272.84 493.423 263.782 494.859 254.719 494.318C236.344 492.875 219.253 486.991 203.745 476.707C200.703 474.658 198.009 472.326 195.712 469.387C195.163 468.985 195.31 468.017 195.11 467.332C194.811 467.292 195.159 467.009 195.507 466.726Z" fill="white"/>
<path d="M362.308 430.316C362.535 432.559 362.964 433.56 362.572 434.145C361.978 435.971 361.092 437.762 360.207 439.552C355.046 449.364 348.154 457.066 339.72 463.314C327.923 471.999 315.507 479.027 302.711 484.743C301.447 485.221 300.474 485.735 299.26 485.904C298.969 485.868 298.147 485.451 298.198 485.141C297.958 484.795 298.11 483.865 298.451 483.59C299.817 482.491 301.473 481.428 303.079 480.674C306.683 478.583 310.236 476.802 313.788 475.02C323.233 469.845 332.249 463.668 340.835 456.489C348.346 450.445 354.125 442.29 359.905 434.136C360.297 433.551 361.03 432.691 362.308 430.316Z" fill="white"/>
<path d="M186.589 304.519C183.945 312.496 181.301 320.473 178.938 328.487C176.758 335.292 175.139 342.17 173.24 349.012C170.972 358.272 169.031 367.267 168.164 376.712C167.842 378.828 166.725 380.53 165.931 380.117C164.622 379.328 164.806 378.119 165.036 376.607C165.17 373.85 165.35 370.79 165.764 368.069C168.25 351.746 172.325 336.248 178.081 320.973C179.984 315.982 181.888 310.991 184.071 306.037C184.444 305.469 184.862 304.6 185.188 304.334C185.606 303.464 186.121 303.841 186.589 304.519Z" fill="white"/>
<path d="M199.494 227.957C218.668 230.961 236.79 239.128 255.964 242.132C272.182 244.392 288.4 246.652 304.665 248.586C326.336 251.274 348.966 249.45 370.966 249.861C376.119 250.247 379.929 251.442 379.188 252.334C377.751 253.793 374.4 253.658 371.35 253.565C364.649 253.295 355.863 254.725 349.209 254.13C308.512 253.768 280.994 251.261 245.377 243.311C233.411 241.312 214.894 233.754 202.975 231.429C201.473 231.22 199.718 230.643 198.564 230.15C197.157 229.291 197.851 228.724 199.494 227.957Z" fill="white"/>
<path d="M373.35 273.776C374.839 273.358 375.633 273.772 375.73 275.017C375.887 279.657 372.492 332.478 372.369 337.081C372.123 346.286 371.598 355.454 371.397 364.358C371.404 366.206 371.131 368.017 371.092 370.168C371.08 379.712 369.95 389.108 368.82 398.503C368.638 399.711 368.456 400.918 368.04 401.786C367.994 402.088 367.344 402.617 366.739 402.845C366.135 403.072 365.387 402.356 365.523 401.45C365.517 399.602 365.51 397.753 365.828 395.64C367.466 384.773 367.659 374.021 368.178 363.004C368.392 357.798 368.931 352.327 369.145 347.12C369.398 339.763 373.852 283.697 373.221 276.53C373.077 275.587 373.214 274.681 373.35 273.776Z" fill="white"/>
<path d="M325.787 329.189C324.635 329.048 324.209 328.054 323.783 327.061C322.743 324.423 321.653 322.093 320.612 319.455C315.926 308.525 311.827 295.785 307.14 284.856C306.526 283.211 305.862 281.875 305.198 280.538C305.01 279.888 305.11 279.272 305.736 279.035C306.074 278.763 306.938 278.869 307.176 279.212C307.652 279.898 307.84 280.549 308.316 281.235C313.34 291.892 317.389 304.94 321.738 316.142C322.966 319.43 324.432 323.062 325.66 326.35C325.798 327.308 326.225 328.302 325.787 329.189Z" fill="white"/>
<path d="M210.208 486.454C216.562 488.974 223.215 491.535 229.569 494.055C230.121 494.461 231.02 494.583 231.619 494.665C246.209 497.312 260.752 500.284 275.763 498.022C279.204 497.497 282.944 497.013 286.385 496.488C287.332 496.286 288.483 496.774 289.43 496.571C289.49 498.235 288.795 498.802 287.847 499.004C282.512 499.934 276.829 501.147 271.242 501.711C258.27 502.595 245.286 501.49 232.985 497.83C225.684 495.513 218.18 492.505 210.927 489.863C209.224 488.969 209.021 488.279 210.208 486.454Z" fill="white"/>
<path d="M229.347 505.537C230.199 505.645 231.147 505.143 231.95 505.555C233.508 506.684 234.402 508.35 235.248 510.321C238.395 517.865 240.026 525.838 240.141 534.242C239.984 538.882 240.111 543.559 239.718 547.859C239.519 550.941 238.752 553.952 237.985 556.962C237.84 557.876 237.412 558.754 236.228 558.915C235.141 558.467 235.334 557.249 235.527 556.03C235.781 550.78 236.318 545.566 236.239 540.585C236.499 533.471 236.191 526.286 234.318 519.836C232.724 515.285 231.129 510.734 229.347 505.537Z" fill="white"/>
<path d="M362.718 340.523C363.923 340.072 364.76 340.185 364.905 341.127C365.05 342.069 364.871 343.274 364.972 344.517C363.753 358.493 362.021 372.091 359.687 385.914C358.47 392.205 356.415 398.381 354.919 404.634C354.785 405.538 354.282 407.006 352.887 406.817C351.861 406.063 352.274 405.197 352.687 404.331C353.591 400.15 354.82 395.705 355.724 391.525C356.495 388.248 357.265 384.971 357.802 381.355C359.723 368.397 361.6 355.741 362.639 342.971C362.45 342.331 362.584 341.427 362.718 340.523Z" fill="white"/>
<path d="M314.34 272.252C315.065 271.4 315.64 271.471 316.116 272.156C316.642 272.535 316.78 273.492 317.018 273.835C324.457 289.489 330.534 308.111 336.334 324.818C337.136 327.112 337.938 329.405 338.74 331.699C338.978 332.042 338.64 332.314 338.878 332.657C338.153 333.509 337.627 333.13 337.439 332.48C336.488 331.109 335.874 329.465 335.21 328.129C331.289 317.926 327.767 305.262 323.559 295.023C321.291 289.1 318.686 283.448 316.081 277.797C315.23 275.811 314.278 274.439 314.34 272.252Z" fill="white"/>
<path d="M233.529 646.566C234.572 645.715 234.969 645.109 235.567 645.188C237.41 645.104 239.552 645.059 241.395 644.974C249.615 645.079 258.085 645.546 266.354 645.327C272.48 645.153 278.607 644.979 285.082 644.521C286.626 644.397 288.267 643.626 289.518 645.441C289.274 647.057 288.279 647.584 287.333 647.788C283.898 648.32 280.163 648.813 276.776 649.022C266.115 648.922 255.156 648.783 244.544 648.361C240.858 648.53 237.52 648.415 233.529 646.566Z" fill="white"/>
<path d="M248.21 621.205C247.021 623.027 246.528 624.282 245.88 624.525C244.287 624.972 242.693 625.419 241.148 625.542C228.487 626.484 216.166 625.159 203.982 620.88C203.383 620.799 202.534 620.355 201.983 619.951C201.733 619.587 201.53 618.899 201.627 618.251C201.676 617.927 202.42 617.036 202.719 617.076C203.917 617.237 205.114 617.398 206.263 617.883C215.348 620.424 224.878 622.035 234.449 621.338C238.688 621.577 242.676 621.452 248.21 621.205Z" fill="white"/>
<path d="M197.712 378.405C199.092 375.164 200.424 372.228 201.755 369.292C202.986 368.827 204.071 369.275 203.879 370.492C203.205 374.754 202.013 378.639 198.932 381.664C196.894 383.579 193.823 382.88 193.406 380.033C193.08 378.439 193.085 376.577 193.325 375.055C193.711 372.62 194.663 370.257 195.615 367.894C197.283 362.827 199.235 357.796 201.188 352.765C201.236 352.461 201.567 352.193 201.615 351.888C201.947 351.62 202.279 351.351 202.562 351.387C203.129 351.459 203.648 351.835 203.552 352.444C203.739 353.088 203.595 354.002 203.215 354.574C201.974 358.764 200.498 362.613 199.305 366.498C198.257 369.47 197.492 372.478 196.728 375.486C196.583 376.399 196.722 377.348 196.578 378.261C196.909 377.993 197.477 378.064 197.712 378.405Z" fill="white"/>
<path d="M246.577 484.485C243.887 484.128 240.898 483.732 238.208 483.375C237.61 483.296 237.012 483.217 236.713 483.177C236.165 482.775 235.665 482.05 235.763 481.404C235.86 480.758 236.556 480.191 237.203 479.947C237.551 479.664 238.1 480.066 238.697 480.145C250.654 481.731 262.757 482.347 275.202 480.703C277.045 480.618 278.637 480.17 280.48 480.085C281.126 479.841 281.974 480.283 281.827 481.252C281.778 481.575 281.332 482.504 280.735 482.425C275.36 483.689 269.936 485.276 264.506 484.886C258.778 484.456 252.653 484.632 246.577 484.485Z" fill="white"/>
<path d="M322.31 412.226C322.851 419.758 318.658 426.072 318.867 433.872C319.581 433.029 320.246 432.491 320.627 431.917C321.535 429.854 322.111 428.061 323.019 425.998C323.4 425.424 324.065 424.886 324.398 424.617C325.064 424.078 325.819 424.795 326.007 425.441C325.66 429.44 324.51 433.027 322.555 436.202C321.744 437.655 320.51 438.121 319.089 437.943C317.383 437.728 315.92 435.989 315.879 434.429C315.837 432.869 316.079 431.345 316.322 429.82C317.812 424.099 319.586 418.414 321.36 412.729C321.124 412.388 321.693 412.46 322.31 412.226Z" fill="white"/>
<path d="M171.716 443.126C171.089 443.364 170.411 443.91 169.834 443.839C169.257 443.768 168.78 443.081 168.253 442.702C167.06 440.984 166.106 439.61 164.964 437.584C159.968 428.484 155.938 418.873 153.552 408.207C153.364 407.555 153.464 406.939 153.515 406.63C153.615 406.014 153.954 405.741 154.581 405.504C154.87 405.539 155.158 405.574 155.397 405.918C155.874 406.605 156.062 407.257 156.251 407.909C159.264 418.338 163.243 428.256 168.867 437.119C169.821 438.493 170.486 439.832 171.101 441.479C171.679 441.55 171.578 442.166 171.716 443.126Z" fill="white"/>
<path d="M250.056 451.855C250.902 450.109 251.653 448.969 252.499 447.223C253.249 449.794 253.389 450.739 252.591 452.182C252.168 453.056 251.417 454.195 250.478 454.693C249.492 455.493 247.896 454.668 246.958 453.31C245.879 451.006 245.693 448.507 246.351 446.118C246.633 444.299 247.197 442.517 247.526 440.395C248.983 434.707 250.205 428.68 251.099 422.92C251.24 422.01 251.381 421.101 251.804 420.228C251.851 419.924 252.79 419.427 253.071 419.464C253.353 419.5 254.104 420.216 254.057 420.519C254.15 421.768 254.009 422.677 253.821 423.89C252.504 430.524 250.906 437.12 249.355 443.414C248.697 445.803 248.086 447.889 248.884 450.157C249.071 450.8 249.587 451.176 250.056 451.855Z" fill="white"/>
<path d="M268.029 504.676C259.753 512.417 254.434 521.775 249.927 531.546C249.491 532.431 248.719 533.587 247.996 534.437C247.947 534.744 247.373 534.673 247.086 534.637C246.799 534.602 246.561 534.26 246.611 533.953C246.423 533.304 246.572 532.383 246.671 531.77C247.306 529.657 248.277 527.274 249.198 525.197C252.199 519.308 256.011 513.833 259.962 509.314C261.407 507.614 263.664 506.328 265.634 505.007C266.307 504.464 267.455 504.605 268.029 504.676Z" fill="white"/>
<path d="M276.686 401.705C275.973 400.677 275.211 399.957 274.785 398.964C272.707 393.695 270.63 388.426 268.889 382.886C268.463 381.893 268.088 380.594 269.099 379.778C270.111 378.963 271.161 379.719 271.775 381.361C273.615 386.287 275.118 391.486 276.958 396.412C277.284 398.019 277.947 399.354 276.686 401.705Z" fill="white"/>
<path d="M310.598 323.765C309.887 322.739 309.126 322.019 308.701 321.029C306.627 315.77 304.553 310.51 302.814 304.98C302.39 303.989 302.361 300.546 303.419 299.426C304.427 298.613 305.128 301.514 305.741 303.153C307.578 308.07 309.079 313.259 310.916 318.176C310.955 319.744 311.568 321.383 310.598 323.765Z" fill="white"/>
<path d="M278.118 274.799C279.395 274.316 280.966 273.869 282.243 273.385C283.113 275.414 282.96 276.355 281.977 276.875C276.907 280.414 269.585 275.671 269.62 269.911C269.479 268.933 269.683 267.677 270.615 267.472C271.254 267.23 272.429 267.375 272.966 267.761C273.745 268.497 274.18 269.512 274.615 270.526C275.191 272.518 276.112 274.232 278.118 274.799Z" fill="white"/>
<path d="M300.267 401.285C298.497 401.065 296.777 400.53 296.196 398.524C295.952 398.172 296.104 397.224 296.155 396.908C296.501 396.629 297.193 396.071 297.488 396.107C298.078 396.181 298.964 396.291 299.503 396.68C301.661 398.237 303.828 397.862 305.802 396.818C307.481 395.738 309.455 394.694 311.083 393.93C311.724 393.688 312.365 393.445 313.006 393.203C313.301 393.239 313.545 393.592 313.84 393.628C314.085 393.981 314.034 394.297 313.983 394.613C313.932 394.929 313.932 394.929 313.586 395.208C309.873 399.579 305.284 401.909 300.267 401.285Z" fill="white"/>
<path d="M223.771 285.988C222 285.768 220.28 285.232 219.7 283.227C219.455 282.874 219.608 281.926 219.659 281.611C220.005 281.331 220.696 280.773 220.991 280.81C221.582 280.883 222.467 280.993 223.006 281.382C225.164 282.939 227.332 282.564 229.306 281.52C230.984 280.44 232.958 279.397 234.586 278.632C235.227 278.39 235.868 278.147 236.509 277.905C236.804 277.941 237.049 278.294 237.344 278.331C237.537 278.999 237.487 279.315 237.436 279.631C237.385 279.947 237.385 279.947 237.039 280.226C233.377 284.281 229.083 286.648 223.771 285.988Z" fill="white"/>
<path d="M245.617 228.088C243.846 227.868 242.126 227.332 241.545 225.327C241.301 224.975 241.454 224.027 241.504 223.711C241.85 223.432 242.542 222.873 242.837 222.91C243.427 222.983 244.313 223.093 244.852 223.483C247.01 225.039 249.177 224.664 251.151 223.621C252.83 222.541 254.804 221.497 256.432 220.733C257.073 220.49 257.714 220.248 258.355 220.005C258.65 220.042 258.894 220.394 259.19 220.431C259.434 220.784 259.383 221.099 259.332 221.415C259.281 221.731 259.281 221.731 258.936 222.01C255.222 226.382 250.634 228.711 245.617 228.088Z" fill="white"/>
<path d="M209.548 450.365C209.792 450.716 210.036 451.068 209.934 451.698C209.669 455.201 211.233 456.68 213.784 457.639C215.206 458.136 216.435 457.967 217.767 457.167C219.098 456.368 220.378 455.883 221.414 455.047C222.44 456.138 221.993 457.047 221.546 457.956C219.717 459.98 217.746 461.022 215.388 460.73C212.737 460.402 210.085 460.074 208.327 457.928C206.468 456.412 205.94 454.097 206.937 451.649C207.14 450.388 208.126 449.867 209.548 450.365Z" fill="white"/>
<path d="M276.816 453.051C275.685 452.587 274.258 452.085 273.177 451.304C272.636 450.914 272.146 450.207 271.952 449.537C271.513 448.513 271.665 447.563 272.653 447.04C273.295 446.798 273.886 446.871 274.478 446.945C274.773 446.982 275.018 447.336 275.263 447.689C276.682 450.127 278.506 450.032 280.778 449.024C282.408 448.258 284.089 447.176 285.719 446.411C286.065 446.131 286.605 446.521 287.146 446.912C287.636 447.619 287.534 448.252 286.791 449.128C283.624 451.963 280.465 452.86 276.816 453.051Z" fill="white"/>
<path d="M246.352 310.326C245.22 309.862 243.793 309.361 242.712 308.58C242.172 308.189 241.682 307.482 241.488 306.812C241.049 305.788 241.201 304.838 242.189 304.316C242.831 304.073 243.422 304.147 244.013 304.221C244.309 304.258 244.554 304.611 244.799 304.965C246.217 307.403 248.041 307.307 250.313 306.299C251.943 305.534 253.624 304.452 255.254 303.686C255.601 303.406 256.141 303.797 256.682 304.187C257.171 304.894 257.07 305.528 256.327 306.404C253.455 309.275 250.245 310.489 246.352 310.326Z" fill="white"/>
<path d="M204.533 412.662C204.381 413.616 204.577 414.288 204.526 414.606C201.051 419.356 192.951 418.984 190.399 414.125C189.908 413.415 189.763 412.424 190.507 411.545C191.251 410.666 192.14 410.778 192.978 411.208C193.521 411.6 194.012 412.31 194.554 412.703C196.571 415.226 199.186 415.879 201.91 413.953C202.604 413.392 203.543 413.186 204.533 412.662Z" fill="white"/>
<path d="M149.545 394.698C148.795 393.983 147.997 393.57 148.091 392.964C147.483 387.627 147.486 382.06 149.178 376.711C149.225 376.408 149.225 376.408 149.554 376.141C149.883 375.875 150.211 375.608 150.493 375.644C150.775 375.681 151.009 376.02 151.244 376.36C151.431 377.003 151.337 377.609 151.29 377.912C151.147 382.533 150.676 387.421 150.533 392.042C150.391 392.952 150.015 393.522 149.545 394.698Z" fill="white"/>
<path d="M240.99 372.848C240.195 374.052 240.045 375.012 239.4 375.256C236.025 377.435 229.728 376.953 227.103 374.33C226.558 373.934 226.41 372.935 225.915 372.219C226.908 371.693 227.553 371.449 228.148 371.526C228.742 371.602 229.635 371.717 230.18 372.113C232.707 373.417 235.087 373.723 237.965 372.786C238.66 372.222 239.8 372.695 240.99 372.848Z" fill="white"/>
<path d="M228.625 606.774C230.413 607.006 232.201 607.238 233.989 607.47C234.287 607.509 234.783 608.228 234.684 608.871C234.634 609.192 234.237 609.795 233.84 610.399C233.492 610.681 233.194 610.643 232.896 610.604C229.27 610.461 225.694 609.998 222.069 609.855C221.175 609.739 220.28 609.623 220.529 608.017C220.728 606.733 221.373 606.489 222.317 606.284C223.857 606.156 225.049 606.311 226.539 606.504C227.085 606.902 228.029 606.697 228.625 606.774Z" fill="white"/>
<path d="M289.253 461.67C291.227 462.568 293.397 464.139 295.522 464.083C297.597 464.345 299.925 463.016 302.498 462.043C302.346 462.997 302.195 463.951 301.848 464.232C300.656 466.028 298.777 466.44 297.194 466.889C294.425 467.189 291.858 466.216 289.392 464.608C288.206 464.458 288.408 463.186 289.253 461.67Z" fill="white"/>
<path d="M212.861 262.335C214.836 263.233 217.006 264.806 219.132 264.749C221.207 265.012 223.535 263.682 226.109 262.709C225.958 263.664 225.806 264.618 225.459 264.899C224.267 266.696 222.387 267.108 220.804 267.557C218.035 267.857 215.467 266.883 213 265.274C211.568 264.768 211.77 263.495 212.861 262.335Z" fill="white"/>
<path d="M243.226 198.604C245.2 199.503 247.37 201.075 249.496 201.019C251.572 201.281 253.899 199.952 256.473 198.979C256.322 199.933 256.17 200.888 255.823 201.169C254.631 202.966 252.751 203.377 251.168 203.827C248.399 204.126 245.831 203.153 243.365 201.543C241.933 201.038 242.084 200.083 243.226 198.604Z" fill="white"/>
<path d="M335.546 206.061C337.52 206.959 339.689 208.53 341.815 208.474C343.89 208.736 346.217 207.407 348.79 206.434C348.639 207.388 348.488 208.342 348.141 208.623C346.949 210.419 345.069 210.831 343.486 211.28C340.717 211.58 338.15 210.607 335.684 208.998C334.549 208.531 334.751 207.258 335.546 206.061Z" fill="white"/>
<path d="M349.229 413.378C349.465 413.719 350.27 414.131 350.222 414.436C349.207 418.977 347.388 423.106 344.527 426.482C344.194 426.751 343.624 426.68 343.006 426.913C343.16 424.132 346.271 417.364 349.229 413.378Z" fill="white"/>
<path d="M212.024 290.187C211.175 293.662 209.639 293.792 208.401 293.96C204.785 293.824 201.169 293.689 198.851 289.158C199.792 288.953 200.487 288.39 201.081 288.465C201.675 288.541 202.219 288.936 203.06 289.369C205.534 290.988 208.057 292.287 212.024 290.187Z" fill="white"/>
<path d="M238.356 573.26C237.974 581.256 237.361 583.343 235.245 585.856C233.744 582.568 235.109 579.34 235.91 576.039C236.099 574.826 236.335 573.309 238.356 573.26Z" fill="white"/>
<path d="M191.986 462.983C190.367 463.743 189.679 464.297 189.093 464.225C186.901 462.999 185.155 460.869 183.753 458.463C183.51 458.114 183.956 457.211 184.3 456.934C184.644 456.657 185.281 456.416 185.524 456.765C187.321 458.581 189.411 460.433 191.986 462.983Z" fill="white"/>
<path d="M215.59 616.555C216.385 615.348 216.485 614.705 217.13 614.462C220.557 613.923 223.785 614.669 226.963 615.736C227.261 615.775 227.46 616.456 227.41 616.777C227.311 617.419 226.914 618.022 226.616 617.984C222.642 618.124 219.414 617.378 215.59 616.555Z" fill="white"/>
<path d="M365.549 409.387C366.253 410.406 366.77 410.782 367.004 411.122C366.58 413.852 366.202 416.278 365.777 419.008C365.73 419.312 365.119 419.542 365.119 419.542C364.837 419.506 364.086 418.79 364.133 418.487C363.994 415.685 364.184 412.615 365.549 409.387Z" fill="white"/>
<path d="M239.511 616.04C237.579 618.699 235.514 618.442 233.794 617.907C233.499 617.87 233.062 616.85 233.113 616.534C233.163 616.219 233.611 615.308 234.201 615.381C235.828 614.617 237.649 614.521 239.511 616.04Z" fill="white"/>
<path d="M260.785 287.405C263.158 285.763 264.882 286.301 266.461 285.852C266.757 285.889 267.002 286.243 267.247 286.597C267.196 286.913 267.095 287.547 266.799 287.51C266.453 287.79 266.056 288.386 265.464 288.313C264.18 288.798 262.652 288.93 260.785 287.405Z" fill="white"/>
<path d="M241.968 408.962C241.764 410.214 241.955 410.876 241.56 411.466C239.739 413.477 237.827 414.2 234.705 413.179C237.356 411.589 239.318 410.552 241.968 408.962Z" fill="white"/>
<path d="M349.52 287.011C349.317 288.263 349.508 288.925 349.113 289.515C347.291 291.526 345.38 292.249 342.258 291.228C344.908 289.638 346.921 288.288 349.52 287.011Z" fill="white"/>
<path d="M243.149 392.323C243.035 394.832 241.963 395.963 240.943 396.785C240.262 397.333 238.914 396.537 238.725 395.883C238.826 395.265 238.977 394.337 239.318 394.063C240.338 393.241 241.548 393.073 243.149 392.323Z" fill="white"/>
<path d="M314.446 456.805C314.792 456.526 315.138 456.247 315.484 455.967C317.357 455.556 319.229 455.144 321.102 454.732C321.49 456.07 320.848 456.312 320.156 456.871C318.131 458.231 316.36 458.011 314.446 456.805Z" fill="white"/>
<path d="M216.686 399.695C218.666 398.647 220.293 399.825 222.664 400.124C219.246 402.612 218.356 402.5 216.686 399.695Z" fill="white"/>
<path d="M348.883 270.858C350.863 269.81 352.49 270.988 354.861 271.287C351.443 273.775 350.554 273.663 348.883 270.858Z" fill="white"/>
<path d="M225.557 437.716C223.274 438.73 221.834 438.217 220.147 437.345C223.027 436.408 223.027 436.408 225.557 437.716Z" fill="white"/>
<path d="M331.378 270.762C332.56 270.909 333.741 271.056 334.922 271.203C333.039 273.548 332.449 273.475 331.378 270.762Z" fill="white"/>
<path d="M229.304 182.614C227.001 182.009 224.993 181.441 223.777 179.687C223.047 178.635 222.662 177.305 222.866 176.047C222.967 175.418 223.658 174.862 224.297 174.62C224.642 174.342 225.179 174.729 225.372 175.394C225.858 176.095 225.757 176.724 225.949 177.389C227.256 180.437 228.382 180.897 231.284 179.651C231.923 179.409 232.562 179.167 233.201 178.925C233.201 178.925 233.496 178.961 233.445 179.276C233.688 179.626 233.637 179.941 233.586 180.255C233.19 180.848 232.743 181.755 232.104 181.997C231.516 181.924 230.237 182.408 229.304 182.614Z" fill="white"/>
<path d="M326.915 167.788C327.413 166.564 328.399 166.043 329.476 166.819C330.014 167.207 330.207 167.874 330.451 168.226C332.015 169.705 332.95 169.499 334.241 167.087C334.688 166.179 335.135 165.27 336.263 165.731C336.801 166.119 337.878 166.895 337.776 167.525C337.969 168.192 337.177 169.379 337.024 170.325C336.973 170.64 336.678 170.603 336.678 170.603C334.951 171.997 332.838 172.057 331.121 171.523C329.109 170.952 327.392 170.419 326.915 167.788Z" fill="white"/>
<path d="M286.481 160.504C289.544 160.241 291.668 160.184 294.089 160.164C296.509 160.145 298.445 157.472 301.306 158.479C300.706 160.348 299.37 161.152 298.38 161.676C295.411 163.247 292.247 164.145 289.386 163.137C288.497 163.026 288.252 162.671 286.481 160.504Z" fill="white"/>
<path d="M324.752 189.828C323.705 192.597 321.924 194.309 319.462 194.648C316.999 194.986 314.689 194.377 313.274 191.946C313.03 191.594 312.887 190.609 313.233 190.33C313.284 190.014 314.22 189.808 314.515 189.845C314.81 189.882 315.054 190.234 315.35 190.271C317.406 192.459 319.573 192.084 321.699 190.093C322.096 189.498 322.737 189.256 323.378 189.013C323.673 189.05 324.212 189.439 324.752 189.828Z" fill="white"/>
<path d="M256.295 178.832C255.55 179.714 255.102 180.634 254.805 180.596C250.889 182.377 247.475 180.965 244.508 178.633C244.261 178.276 244.065 177.599 243.818 177.242C243.868 176.923 243.918 176.603 243.968 176.284C244.316 176.003 244.613 176.041 244.91 176.078C245.207 176.116 245.207 176.116 245.504 176.154C247.186 177.02 248.768 178.524 250.5 179.07C252.035 178.94 253.868 178.848 256.295 178.832Z" fill="white"/>
<path d="M233.293 146.649C233.242 146.958 233.192 147.268 233.192 147.268C230.859 148.877 228.816 150.521 227.782 153.235C227.681 153.853 226.71 154.366 226.13 154.295C224.971 154.154 225.173 152.916 225.324 151.988C225.678 149.822 226.85 148.071 228.553 146.701C229.914 145.605 231.654 145.818 233.293 146.649Z" fill="white"/>
<path d="M351.474 185.696C348.842 188.942 346.119 188.921 343.346 189.219C340.326 189.161 339.782 188.766 338.352 186.306C340.778 186.289 342.857 186.553 344.986 186.498C346.818 186.406 348.902 184.718 351.474 185.696Z" fill="white"/>
<path d="M300.375 176.873C301.707 176.073 302.694 175.551 303.335 175.309C305.654 173.986 307.18 173.854 308.697 175.652C309.236 176.041 309.379 177.025 309.277 177.657C309.226 177.973 308.484 178.847 308.189 178.81C305.33 179.743 303.02 179.135 300.375 176.873ZM304.902 176.792L304.607 176.755L304.902 176.792Z" fill="white"/>
<path d="M363.638 185.552C363.985 185.27 364.332 184.989 364.629 185.027C366.852 186.284 369.226 186.585 371.455 185.892C371.752 185.93 372.048 185.967 372.295 186.324C372.541 186.68 372.44 187.318 372.144 187.28C369.317 189.848 365.162 189.321 363.537 186.189C363.537 186.189 363.588 185.87 363.638 185.552Z" fill="white"/>
<path d="M276.613 171.248C278.184 170.801 279.794 171.96 281.326 169.906C281.773 169.001 283.383 170.16 283.473 171.452C283.372 172.08 283.219 173.021 282.58 173.263C280.563 174.616 278.506 174.363 276.703 172.54C276.46 172.19 276.562 171.562 276.613 171.248Z" fill="white"/>
<path d="M313.594 149.544C310.904 149.533 308.61 148.933 307.602 145.935C307.36 145.586 307.806 144.683 307.856 144.37C308.201 144.093 308.787 144.164 309.424 143.923C309.424 143.923 309.717 143.959 309.96 144.308C311.222 145.74 312.484 147.173 313.797 148.292C313.746 148.605 313.696 148.918 313.594 149.544Z" fill="white"/>
<path d="M289.142 190.782C291.916 190.484 294.292 190.787 296.864 191.765C295.274 194.168 293.543 193.622 292.057 193.433C290.522 193.563 289.087 193.055 289.142 190.782Z" fill="white"/>
<path d="M250.713 165.29C253.69 165.674 256.072 165.981 258.454 166.289C257.907 167.853 256.914 168.379 256.021 168.264C254.234 168.034 252.051 168.406 250.713 165.29Z" fill="white"/>
<path d="M235.283 157.243C237.961 157.587 240.044 157.855 242.722 158.199C241.382 159.007 240.935 159.929 240.042 159.814C238.454 160.264 236.619 160.354 235.283 157.243Z" fill="white"/>
<path d="M312.048 201.623C311.397 203.803 310.164 203.972 308.981 203.825C307.799 203.677 306.616 203.529 306.675 201.275C308.601 200.546 310.223 201.718 312.048 201.623Z" fill="white"/>
<path d="M374.651 198.503C376.771 198.445 378.054 197.959 379.532 198.144C379.828 198.181 380.073 198.534 380.022 198.851C379.971 199.167 379.87 199.8 379.574 199.764C377.843 201.162 377.252 201.088 374.651 198.503Z" fill="white"/>
<path d="M242.787 151.983C245.004 151.293 246.579 150.845 248.155 150.396C248.887 151.452 248.145 152.325 247.454 152.883C246.122 153.683 244.648 153.501 242.787 151.983Z" fill="white"/>
<path d="M247.026 137.471C249.453 137.455 249.453 137.455 252.469 139.467C249.942 140.122 248.16 139.895 247.026 137.471Z" fill="white"/>
<path d="M205.454 343.756C205.745 343.792 205.594 344.722 205.062 344.341C203.315 344.126 201.377 343.256 199.68 342.731C197.983 342.207 195.893 342.267 194.488 341.778C193.905 341.707 194.056 340.777 194.588 341.158C196.336 341.372 197.893 340.931 198.436 339.416C200.822 330.221 202.161 325.641 204.547 316.446C205.241 314.001 203.796 311.926 202.099 311.402C201.808 311.366 201.909 310.746 202.491 310.817C204.189 311.342 205.936 311.556 207.633 312.08C210.153 313.022 209.347 317.984 209.347 317.984C209.638 318.019 216.079 313.117 220.739 313.688C228.894 314.689 229.852 325.243 222.727 330.695C217.944 334.535 213.234 334.274 205.471 332.689C204.676 335.754 204.424 337.304 203.628 340.37C202.452 342.123 203.757 343.232 205.454 343.756ZM220.459 328.202C223.937 323.253 221.843 316.038 217.132 315.776C214.802 315.49 210.663 317.196 207.868 321.597C206.972 325.283 206.378 327.107 205.432 331.103C210.674 331.746 217.373 332.568 220.459 328.202Z" fill="white"/>
<path d="M268.99 339.648C267.844 343.053 261.233 358.029 249.702 354.647C244.528 353.03 242.477 346.966 241.452 343.935C240.231 340.233 240.974 339.359 245.072 338.26C249.567 336.566 249.253 327.173 244.369 327.528C241.952 327.547 238.54 330.022 236.506 333.315C235.253 339.286 234.503 342.095 233.249 348.067C233.048 349.332 234.08 350.429 235.559 350.614C235.855 350.651 235.754 351.284 235.458 351.247C233.979 351.061 232.254 350.522 230.775 350.337C229.296 350.151 227.521 349.928 226.042 349.743C225.746 349.706 225.847 349.073 226.143 349.11C227.622 349.296 228.906 348.812 229.404 347.584C230.909 340.032 231.86 335.958 233.662 328.442C233.964 326.545 232.737 324.778 231.013 324.239C230.717 324.202 230.818 323.569 231.114 323.607C231.409 323.644 235.205 324.442 235.796 324.517C237.817 325.093 237.861 326.711 237.558 328.608C237.457 329.241 237.407 329.557 237.306 330.19C239.881 327.287 243.538 325.165 247.139 325.295C254.585 325.906 254.999 334.667 249.019 338.11C246.696 339.432 245.217 339.246 245.311 340.548C245.254 342.799 248.034 351.857 253.013 352.804C261.195 354.476 267.656 340.449 268.506 337.007C267.625 334.961 267.185 333.938 266.65 331.613C266.26 330.274 264.983 328.824 263.8 328.675C263.208 328.601 263.605 328.006 263.9 328.043C265.379 328.228 267.45 328.488 268.879 328.99C270.062 329.138 270.994 330.868 271.629 332.56C274.705 341.656 276.417 346.064 279.839 354.88C280.525 356.256 281.853 357.39 283.036 357.539C283.332 357.576 283.231 358.208 282.936 358.171C281.456 357.986 279.09 357.689 277.906 357.54C276.427 357.355 272.827 357.225 271.348 357.04C271.052 357.003 271.153 356.37 271.449 356.407C273.224 356.63 275.15 355.904 274.81 354.249C271.872 348.074 270.796 345.358 268.99 339.648Z" fill="white"/>
<path d="M297.809 348.607C294.904 351.757 293.133 353.453 290.228 356.603C289.145 357.745 290.703 359.213 292.171 359.394C292.464 359.43 292.656 360.092 292.069 360.02C290.602 359.839 288.841 359.622 287.374 359.441C285.906 359.26 284.095 359.356 282.628 359.175C282.041 359.102 282.142 358.477 282.729 358.549C284.196 358.73 286.109 358.009 287.485 356.903C291.372 353.236 293.194 351.228 297.131 347.248C295.046 343.482 294.176 341.461 292.092 337.696C289.765 333.582 284.544 321.456 276.701 323.679C276.063 323.919 276.164 323.293 276.509 323.017C287.054 318.895 292.042 328.759 295.533 334.93C296.889 337.649 298.538 340.404 300.329 344.133C302.545 341.536 303.922 340.43 306.138 337.832C307.221 336.69 306.199 335.607 304.438 335.39C304.145 335.354 303.953 334.692 304.54 334.765C306.007 334.946 307.474 335.127 308.942 335.307C310.116 335.452 312.221 335.393 313.394 335.537C313.981 335.61 313.587 336.199 313.293 336.163C312.119 336.018 309.964 336.39 308.537 337.809C305.632 340.96 304.154 342.691 300.956 345.805C302.798 349.222 304.882 352.987 308.039 357.523C312.602 364.464 320.576 374.378 328.622 370.904C328.966 370.628 329.158 371.289 328.814 371.566C318.4 378.575 308.038 366.772 302.655 357.497C300.571 353.732 299.65 352.023 297.809 348.607Z" fill="white"/>
<path d="M320.294 338.98C320.489 337.757 319.443 337.003 318.012 336.824C317.725 336.788 317.823 336.177 318.11 336.212C319.54 336.391 320.971 336.57 322.402 336.748C323.833 336.927 325.648 336.53 326.793 336.673C327.365 336.744 327.267 337.356 326.981 337.32C325.501 337.447 324.259 337.916 324.349 339.174C323.649 347.195 323.299 351.205 322.55 359.531C322.354 360.754 323.401 361.508 325.118 361.722C325.404 361.758 325.306 362.37 325.02 362.334C323.875 362.191 321.872 361.941 320.678 362.104C319.248 361.925 317.481 362.016 316.051 361.838C315.478 361.766 315.576 361.155 315.862 361.19C317.579 361.405 318.634 360.289 318.781 359.372C319.194 351.316 319.594 347 320.294 338.98Z" fill="white"/>
<path d="M332.697 364.128C332.648 364.435 332.07 364.364 332.12 364.057C332.22 363.441 332.369 362.518 332.329 360.944C332.579 359.406 332.2 358.104 332.4 356.873C332.499 356.258 333.077 356.329 332.977 356.944C333.067 358.211 334.022 359.584 335.028 360.649C336.033 361.714 337.327 362.815 339.975 362.828C343.778 362.983 346.586 360.191 346.746 357.386C347.115 351.469 332.858 352.222 333.775 342.921C334.134 338.885 338.674 336.307 342.527 336.154C344.309 336.06 345.414 336.51 346.47 337.268C347.286 337.682 349.018 337.895 349.217 336.665C349.267 336.357 349.845 336.428 349.795 336.736C349.695 337.351 349.834 338.31 349.585 339.848C349.625 341.422 349.426 342.653 349.515 343.919C349.416 344.535 348.838 344.464 348.888 344.156C348.798 342.89 347.793 341.824 347.076 340.794C345.593 339.042 343.383 338.142 342.178 338.308C338.953 338.224 337.449 340.235 337.389 342.425C336.921 348.957 351.566 347.624 350.26 357.505C349.951 361.233 346.367 365.185 339.627 364.982C336.978 364.969 335.057 364.105 333.952 363.655C333.763 363.004 332.797 363.512 332.697 364.128Z" fill="white"/>
<path d="M228.507 353.407C228.8 353.443 228.8 353.443 229.092 353.48C229.385 353.516 229.385 353.516 229.628 353.863C229.628 353.863 229.921 353.899 229.871 354.209C229.871 354.209 229.871 354.209 229.821 354.52L229.771 354.83C229.722 355.141 229.722 355.141 229.672 355.451C229.672 355.451 229.672 355.451 229.379 355.414L229.429 355.104L229.479 354.794C229.479 354.794 229.528 354.483 229.236 354.447C229.236 354.447 228.943 354.411 228.993 354.1L228.7 354.064C228.407 354.028 228.164 353.681 228.507 353.407C228.164 353.681 227.871 353.644 227.578 353.608C227.285 353.572 227.285 353.572 226.942 353.846L226.599 354.12C226.55 354.43 226.257 354.394 226.207 354.704C226.157 355.014 226.157 355.014 225.814 355.288C225.764 355.599 225.764 355.599 225.714 355.909C225.664 356.219 225.614 356.53 225.614 356.53C225.565 356.84 225.565 356.84 225.515 357.15C225.465 357.461 225.758 357.497 225.708 357.807C225.658 358.118 225.951 358.154 225.951 358.154L226.194 358.501C226.487 358.537 226.487 358.537 226.779 358.574L227.072 358.61L227.365 358.646C227.365 358.646 227.658 358.683 227.708 358.372C227.758 358.062 228.051 358.099 228.051 358.099C227.708 358.372 227.708 358.372 227.415 358.336C227.122 358.3 227.072 358.61 226.779 358.574C226.487 358.537 226.487 358.537 226.194 358.501C225.901 358.465 225.901 358.465 225.608 358.428C225.315 358.392 225.315 358.392 225.022 358.355C224.729 358.319 224.779 358.009 224.486 357.972C224.193 357.936 224.243 357.626 224.243 357.626C224.293 357.315 224 357.279 224.05 356.968C224.1 356.658 223.807 356.622 223.857 356.311C223.907 356.001 223.957 355.691 223.957 355.691C224.007 355.38 224.057 355.07 224.057 355.07C224.107 354.76 224.449 354.486 224.449 354.486C224.499 354.175 224.792 354.212 224.842 353.901C225.185 353.627 225.185 353.627 225.528 353.353C225.821 353.39 226.163 353.116 226.163 353.116C227.921 353.334 228.214 353.37 228.507 353.407Z" fill="white"/>
<path d="M230.808 355.041C230.808 355.041 230.858 354.731 230.808 355.041C230.858 354.731 230.858 354.731 230.808 355.041C230.858 354.731 230.858 354.731 230.566 354.695C230.566 354.695 230.566 354.695 230.274 354.659C230.274 354.659 230.274 354.659 229.982 354.623C229.982 354.623 229.982 354.623 229.69 354.587C229.69 354.587 229.69 354.587 229.74 354.277C230.032 354.314 230.032 354.314 230.324 354.35L230.616 354.386L230.907 354.422L231.199 354.458C231.491 354.495 231.783 354.531 231.783 354.531C232.075 354.567 232.075 354.567 232.367 354.603C232.659 354.64 232.659 354.64 232.659 354.64L232.951 354.676C232.951 354.676 232.951 354.676 233.242 354.712C233.242 354.712 233.242 354.712 233.193 355.021C233.193 355.021 233.193 355.021 233.143 355.33L233.093 355.64L233.043 355.949L232.994 356.258C232.994 356.258 232.994 356.258 232.702 356.222C232.702 356.222 232.702 356.222 232.751 355.913L232.801 355.604C232.801 355.604 232.801 355.604 232.851 355.294C232.901 354.985 232.851 355.294 232.559 355.258L232.267 355.222C231.975 355.186 231.975 355.186 231.975 355.186L231.683 355.149C231.683 355.149 231.683 355.149 231.392 355.113C231.1 355.077 231.1 355.077 231.1 355.077L231.05 355.386C231 355.695 231 355.695 230.95 356.005C230.901 356.314 230.901 356.314 230.851 356.623C230.801 356.932 230.801 356.932 230.751 357.242C231.043 357.278 231.043 357.278 231.335 357.314C231.627 357.35 231.627 357.35 231.919 357.386C232.211 357.423 232.211 357.423 232.503 357.459L232.795 357.495C232.795 357.495 232.794 357.495 232.745 357.804C232.745 357.804 232.745 357.804 232.453 357.768L232.161 357.732C231.869 357.696 231.869 357.696 231.577 357.659C231.285 357.623 231.285 357.623 230.993 357.587L230.944 357.896L230.894 358.205L230.844 358.515L230.794 358.824L230.745 359.133L230.695 359.442C230.987 359.479 230.987 359.479 231.279 359.515C231.571 359.551 231.57 359.551 231.57 359.551C231.862 359.587 231.862 359.587 232.154 359.624C232.446 359.66 232.446 359.66 232.738 359.696L233.03 359.732C233.03 359.732 233.03 359.732 233.322 359.768C233.322 359.768 233.322 359.768 233.663 359.495L233.713 359.186C233.713 359.186 233.713 359.186 234.005 359.222C233.955 359.532 233.906 359.841 233.906 359.841C233.856 360.15 233.856 360.15 233.564 360.114C233.564 360.114 233.514 360.423 233.222 360.387L232.93 360.351L232.638 360.314L232.347 360.278L232.055 360.242C232.055 360.242 231.763 360.206 231.471 360.17C231.179 360.133 231.179 360.133 230.887 360.097C230.595 360.061 230.595 360.061 230.303 360.025C230.353 359.715 230.353 359.715 230.403 359.406C230.453 359.097 230.503 358.788 230.503 358.788C230.552 358.478 230.602 358.169 230.652 357.86C230.702 357.551 230.751 357.242 230.801 356.932C230.851 356.623 230.901 356.314 230.95 356.005C230.708 355.659 230.758 355.35 230.808 355.041Z" fill="white"/>
<path d="M235.296 355.997C235.346 355.687 235.346 355.687 235.296 355.997C235.346 355.687 235.346 355.687 235.296 355.997C235.346 355.687 235.346 355.687 235.054 355.651C235.054 355.651 235.054 355.651 234.762 355.615L234.47 355.579C234.47 355.579 234.47 355.579 234.52 355.27C234.812 355.306 234.812 355.306 235.104 355.342C235.396 355.378 235.396 355.378 235.687 355.414C235.979 355.451 235.979 355.451 236.271 355.487C236.563 355.523 236.563 355.523 236.855 355.559C237.147 355.596 237.439 355.632 237.439 355.632C237.731 355.668 237.731 355.668 237.973 356.013L238.215 356.359C238.165 356.668 238.165 356.668 238.115 356.977C238.066 357.287 238.066 357.287 238.016 357.596C237.966 357.905 237.674 357.869 237.674 357.869C237.674 357.869 237.333 358.142 237.041 358.106C236.749 358.07 236.699 358.379 236.407 358.343C236.649 358.688 236.599 358.997 236.55 359.306C236.5 359.616 236.792 359.652 236.742 359.961C236.692 360.27 236.984 360.307 236.984 360.307L237.226 360.652C237.226 360.652 237.226 360.652 237.468 360.998C237.468 360.998 237.468 360.998 237.76 361.034C237.76 361.034 237.76 361.034 238.052 361.07C238.052 361.07 238.052 361.07 238.344 361.106C238.344 361.106 238.344 361.106 238.636 361.143C238.636 361.143 238.636 361.143 238.928 361.179C238.928 361.179 238.928 361.179 238.878 361.488C238.586 361.452 238.586 361.452 238.245 361.725C237.953 361.689 237.953 361.689 237.953 361.689C237.953 361.689 237.953 361.689 237.661 361.652C237.369 361.616 237.661 361.652 237.661 361.652L237.419 361.307C237.419 361.307 237.177 360.961 237.226 360.652C237.276 360.343 237.034 359.997 236.792 359.652C236.55 359.306 236.599 358.997 236.357 358.652C236.649 358.688 236.941 358.724 236.941 358.724C237.233 358.76 237.233 358.76 237.575 358.487L237.916 358.214C237.966 357.905 237.966 357.905 238.016 357.596C238.066 357.287 238.115 356.977 237.873 356.632C237.631 356.286 237.339 356.25 237.047 356.214L236.756 356.178L236.464 356.142C236.464 356.142 236.414 356.451 236.364 356.76C236.314 357.069 236.314 357.069 236.265 357.379C236.215 357.688 236.165 357.997 236.115 358.306C236.065 358.616 236.016 358.925 235.966 359.234C235.916 359.543 235.866 359.853 235.817 360.162C235.767 360.471 235.717 360.78 235.618 361.399C235.326 361.363 235.326 361.363 235.034 361.326C235.083 361.017 235.183 360.399 235.233 360.089C235.283 359.78 235.382 359.162 235.432 358.852C235.482 358.543 235.581 357.925 235.631 357.615C235.197 356.615 235.246 356.306 235.296 355.997Z" fill="white"/>
<path d="M240.075 356.685C240.026 356.993 240.026 356.993 240.267 357.338C240.218 357.647 240.168 357.956 240.41 358.301C240.36 358.61 240.261 359.228 240.503 359.573C240.403 360.19 240.645 360.535 240.545 361.153C240.887 360.88 240.936 360.572 241.278 360.299C241.619 360.026 241.668 359.717 241.718 359.409C241.768 359.1 242.109 358.827 242.109 358.827C242.159 358.518 242.5 358.246 242.5 358.246C242.55 357.937 242.841 357.973 242.891 357.664C242.941 357.355 242.941 357.355 242.99 357.046C243.04 356.738 243.09 356.429 242.848 356.084L243.139 356.12L243.431 356.156C243.431 356.156 243.431 356.156 243.381 356.465L243.331 356.774L243.282 357.083C243.232 357.391 243.232 357.391 242.891 357.664C242.841 357.973 242.5 358.246 242.45 358.554C242.401 358.863 242.059 359.136 241.718 359.409C241.377 359.681 241.327 359.99 240.986 360.263C240.645 360.535 240.304 360.808 240.204 361.426C239.913 361.39 239.913 361.39 239.913 361.39C239.82 360.118 240.019 358.883 239.827 358.229C239.976 357.302 239.734 356.957 239.834 356.34L239.883 356.031C239.883 356.031 239.883 356.031 239.592 355.995C239.592 355.995 239.592 355.995 239.3 355.958C239.3 355.958 239.3 355.958 239.009 355.922C239.009 355.922 239.009 355.922 238.717 355.886C238.717 355.886 238.717 355.886 238.767 355.577C239.058 355.613 239.35 355.65 239.35 355.65C239.641 355.686 239.641 355.686 239.641 355.686L239.933 355.722C239.883 356.031 239.834 356.34 240.075 356.685C240.125 356.376 240.125 356.376 240.075 356.685Z" fill="white"/>
<path d="M244.262 357.59C244.262 357.59 244.311 357.281 244.262 357.59C244.311 357.281 244.311 357.281 244.262 357.59C244.311 357.281 244.311 357.281 244.02 357.245C244.02 357.245 244.02 357.245 243.728 357.208C243.728 357.208 243.728 357.208 243.437 357.172C243.437 357.172 243.437 357.172 243.145 357.136C243.145 357.136 243.145 357.136 243.195 356.827C243.486 356.863 243.486 356.863 243.778 356.9L244.069 356.936L244.361 356.972L244.652 357.008C244.944 357.044 245.235 357.08 245.235 357.08C245.527 357.117 245.527 357.117 245.818 357.153C246.11 357.189 246.11 357.189 246.11 357.189L246.401 357.225C246.401 357.225 246.401 357.225 246.693 357.261C246.693 357.261 246.693 357.261 246.643 357.57C246.643 357.57 246.643 357.57 246.593 357.879C246.544 358.188 246.544 358.188 246.544 358.188L246.494 358.497L246.444 358.806C246.444 358.806 246.444 358.806 246.153 358.769C246.153 358.769 246.153 358.769 246.203 358.46L246.252 358.152C246.252 358.152 246.252 358.152 246.302 357.843C246.302 357.843 246.302 357.843 246.01 357.807L245.719 357.77C245.427 357.734 245.427 357.734 245.427 357.734L245.136 357.698C245.136 357.698 245.136 357.698 244.845 357.662L244.553 357.626L244.503 357.935C244.454 358.243 244.454 358.243 244.404 358.552C244.354 358.861 244.354 358.861 244.305 359.17C244.255 359.479 244.255 359.479 244.205 359.788C244.497 359.824 244.497 359.824 244.788 359.86C245.08 359.896 245.08 359.896 245.371 359.932C245.663 359.969 245.663 359.969 245.954 360.005L246.246 360.041C246.246 360.041 246.246 360.041 246.196 360.35C246.196 360.35 246.196 360.35 245.904 360.314L245.613 360.277C245.321 360.241 245.321 360.241 245.03 360.205C244.738 360.169 244.738 360.169 244.447 360.133L244.397 360.441L244.348 360.75L244.298 361.059L244.248 361.368L244.198 361.677L244.149 361.986C244.44 362.022 244.44 362.022 244.732 362.058C245.023 362.094 245.023 362.094 245.023 362.094C245.315 362.13 245.315 362.13 245.606 362.167C245.898 362.203 245.898 362.203 246.189 362.239L246.481 362.275C246.481 362.275 246.481 362.275 246.772 362.311L246.822 362.002L246.872 361.694C246.872 361.694 246.872 361.694 247.163 361.73C247.113 362.039 247.064 362.347 247.064 362.347C247.014 362.656 247.014 362.656 246.722 362.62C246.722 362.62 246.673 362.929 246.381 362.893L246.09 362.857L245.798 362.82L245.507 362.784L245.215 362.748C245.215 362.748 244.924 362.712 244.632 362.676C244.341 362.64 244.341 362.64 244.049 362.603C243.758 362.567 243.758 362.567 243.466 362.531C243.516 362.222 243.516 362.222 243.566 361.913C243.615 361.604 243.665 361.296 243.665 361.296C243.715 360.987 243.765 360.678 243.814 360.369C243.864 360.06 243.914 359.751 243.963 359.443C244.013 359.134 244.063 358.825 244.112 358.516C244.162 358.207 244.212 357.898 244.262 357.59Z" fill="white"/>
<path d="M248.966 358.228C248.918 358.533 248.918 358.533 248.869 358.838L248.821 359.143L248.773 359.448C248.724 359.753 248.676 360.058 248.58 360.668C248.531 360.973 248.483 361.278 248.386 361.888C248.338 362.193 248.29 362.498 247.955 362.766C247.907 363.071 247.858 363.376 247.523 363.645C247.475 363.95 247.475 363.95 247.14 364.219C246.805 364.488 246.805 364.488 246.805 364.488L246.47 364.756C246.47 364.756 246.184 364.72 246.135 365.025L245.849 364.989L245.562 364.953L245.275 364.916L244.989 364.88C244.989 364.88 244.989 364.88 244.75 364.539C244.75 364.539 244.75 364.539 244.798 364.234C244.798 364.234 244.798 364.234 245.085 364.27C245.037 364.575 245.323 364.611 245.323 364.611L245.61 364.648C245.897 364.684 245.897 364.684 245.897 364.684L246.232 364.415C246.232 364.415 246.567 364.146 246.615 363.841C246.663 363.536 246.663 363.536 246.712 363.231C246.76 362.926 246.808 362.621 246.856 362.316C246.905 362.011 246.953 361.706 247.001 361.401C247.05 361.096 247.098 360.791 247.146 360.486C247.194 360.181 247.243 359.876 247.291 359.571C247.339 359.266 247.388 358.961 247.436 358.656C247.484 358.351 247.532 358.046 247.581 357.742C247.581 357.742 247.581 357.742 247.629 357.437C247.629 357.437 247.629 357.437 247.342 357.4C247.342 357.4 247.342 357.4 247.391 357.095C247.677 357.132 247.964 357.168 247.964 357.168C248.251 357.204 248.251 357.204 248.537 357.24L248.824 357.277C249.014 357.923 249.014 357.923 248.966 358.228C249.014 357.923 248.966 358.228 248.966 358.228Z" fill="white"/>
<path d="M250.033 362.226C249.983 362.536 249.983 362.536 249.69 362.5L249.64 362.81L249.59 363.121C249.59 363.121 249.59 363.121 249.54 363.431C249.883 363.157 249.983 362.536 250.326 362.262C250.669 361.988 250.719 361.678 251.061 361.404C251.061 361.404 251.061 361.404 251.354 361.441C251.747 360.856 252.14 360.272 252.482 359.998C252.875 359.414 253.218 359.14 253.268 358.83C253.168 359.45 253.411 359.797 253.311 360.418C253.211 361.038 253.161 361.348 253.404 361.695C253.354 362.005 253.304 362.316 253.547 362.662C253.497 362.973 253.448 363.283 253.74 363.319C253.691 363.63 253.691 363.63 253.983 363.666C253.983 363.666 253.934 363.976 254.226 364.013C254.226 364.013 254.226 364.013 254.519 364.049L254.812 364.086C254.812 364.086 254.812 364.086 255.105 364.122C255.105 364.122 255.105 364.122 255.398 364.158C255.398 364.158 255.398 364.158 255.348 364.469C255.055 364.432 255.055 364.432 254.712 364.706C254.419 364.67 254.419 364.67 254.127 364.633C254.127 364.633 254.127 364.633 253.834 364.597C253.834 364.597 253.834 364.597 253.541 364.561C253.541 364.561 253.591 364.25 253.298 364.214C253.298 364.214 253.348 363.904 253.055 363.867C253.105 363.557 253.105 363.557 252.862 363.21C252.912 362.9 252.962 362.59 252.719 362.243C252.426 362.207 252.133 362.17 251.84 362.134C251.547 362.098 250.961 362.025 250.961 362.025C250.961 362.025 250.912 362.335 250.619 362.299C250.376 361.952 250.376 361.952 250.033 362.226ZM252.576 361.276C252.625 360.965 252.625 360.965 252.675 360.655C252.725 360.345 252.725 360.345 252.775 360.034C252.825 359.724 252.825 359.724 252.875 359.414C252.925 359.104 252.975 358.793 252.975 358.793C252.582 359.377 252.239 359.651 252.189 359.962C251.847 360.236 251.747 360.856 251.404 361.13C251.697 361.167 251.99 361.203 252.283 361.239C251.99 361.203 252.283 361.239 252.576 361.276Z" fill="white"/>
<path d="M256.441 360.584L256.732 360.62L257.023 360.656L257.314 360.692L257.606 360.729C257.897 360.765 257.897 360.765 258.188 360.801C258.479 360.837 258.479 360.837 258.77 360.873C259.061 360.909 259.062 360.909 259.012 361.218L259.253 361.563C259.253 361.563 259.495 361.907 259.445 362.216C259.396 362.524 259.396 362.524 259.346 362.833C259.296 363.141 259.296 363.141 259.247 363.45C259.197 363.758 259.197 363.758 258.856 364.031C258.515 364.303 258.515 364.303 258.515 364.303L258.175 364.576C257.883 364.539 257.834 364.848 257.543 364.812C257.252 364.776 257.252 364.776 256.96 364.74L256.669 364.703L256.378 364.667L256.087 364.631L256.136 364.323L256.186 364.014C256.236 363.705 256.236 363.705 256.285 363.397C256.335 363.088 256.335 363.088 256.385 362.78C256.434 362.471 256.484 362.163 256.484 362.163C256.534 361.854 256.583 361.546 256.633 361.237C256.633 361.237 256.633 361.237 256.342 361.201C256.682 360.929 256.682 360.929 256.441 360.584ZM257.606 360.729C257.556 361.037 257.556 361.037 257.606 360.729C257.556 361.037 257.506 361.346 257.506 361.346C257.506 361.346 257.457 361.654 257.407 361.963C257.357 362.271 257.357 362.271 257.308 362.58C257.258 362.888 257.258 362.888 257.209 363.197C257.159 363.505 257.159 363.505 257.109 363.814C257.06 364.122 257.06 364.122 257.06 364.122L257.01 364.431L257.301 364.467L257.592 364.503C257.883 364.539 257.883 364.539 258.175 364.576C258.466 364.612 258.466 364.612 258.515 364.303L258.856 364.031L259.197 363.758L259.247 363.45C259.296 363.141 259.296 363.141 259.346 362.833C259.396 362.524 259.445 362.216 259.445 362.216C259.495 361.907 259.495 361.907 259.253 361.563C259.253 361.563 259.012 361.218 258.721 361.182C258.43 361.146 258.138 361.109 257.847 361.073C257.897 360.765 257.897 360.765 257.606 360.729Z" fill="white"/>
<path d="M261.138 361.877C261.138 361.877 261.187 361.569 261.138 361.877C260.897 361.533 260.897 361.533 261.138 361.877C260.897 361.533 260.897 361.533 261.138 361.877C260.897 361.533 260.897 361.533 261.138 361.877C260.897 361.533 260.897 361.533 260.897 361.533C260.897 361.533 260.897 361.533 260.607 361.497C260.607 361.497 260.607 361.497 260.656 361.189L260.946 361.226L261.237 361.262L261.527 361.298C261.527 361.298 261.527 361.298 261.817 361.334C262.107 361.37 262.107 361.37 262.397 361.406C262.687 361.442 262.687 361.442 262.687 361.442L262.977 361.478C262.977 361.478 262.977 361.478 263.267 361.514C263.267 361.514 263.267 361.514 263.218 361.822L263.168 362.129L263.119 362.437C263.119 362.437 263.119 362.437 262.829 362.401L262.878 362.093C262.878 362.093 262.878 362.093 262.588 362.057L262.298 362.021L262.008 361.985L261.718 361.949L261.669 362.256L261.619 362.564L261.57 362.871C261.57 362.871 261.52 363.179 261.471 363.487C261.761 363.523 261.761 363.523 261.761 363.523L262.051 363.559L262.341 363.595L262.631 363.631C262.631 363.631 262.631 363.631 262.341 363.595L262.051 363.559C261.761 363.523 261.761 363.523 261.471 363.487C261.471 363.487 261.471 363.487 261.422 363.794L261.372 364.102L261.323 364.409L261.273 364.717L261.224 365.024C261.224 365.024 261.224 365.024 261.175 365.332L261.465 365.368L261.755 365.404L262.045 365.44L262.335 365.476C262.335 365.476 262.335 365.476 262.625 365.512C262.625 365.512 262.625 365.512 262.675 365.205L262.724 364.897C262.724 364.897 262.724 364.897 263.014 364.933C262.965 365.241 262.965 365.241 262.915 365.548L262.866 365.856C262.866 365.856 262.866 365.856 262.576 365.82C262.576 365.82 262.576 365.82 262.286 365.784C262.286 365.784 262.286 365.784 261.996 365.748L261.706 365.711L261.415 365.675L261.125 365.639L260.835 365.603L260.545 365.567L260.595 365.26C260.644 364.952 260.644 364.952 260.693 364.644C260.743 364.337 260.743 364.337 260.792 364.029C260.841 363.722 260.841 363.722 260.891 363.414C260.94 363.107 260.94 363.107 260.99 362.799C261.088 362.184 261.138 361.877 261.138 361.877Z" fill="white"/>
<path d="M268.627 360.723C268.919 360.759 268.919 360.759 269.211 360.795C269.503 360.831 269.503 360.831 269.795 360.868C269.795 360.868 270.087 360.904 270.037 361.213C270.037 361.213 270.037 361.213 269.987 361.522L269.937 361.832C269.888 362.141 269.888 362.141 269.838 362.45C269.838 362.45 269.838 362.45 269.546 362.414L269.596 362.105L269.646 361.795C269.646 361.795 269.695 361.486 269.403 361.45C269.403 361.45 269.112 361.414 269.161 361.104L268.869 361.068L268.578 361.032C268.286 360.996 268.286 360.996 267.994 360.96C267.702 360.923 267.652 361.233 267.36 361.196L267.019 361.469C266.969 361.779 266.677 361.742 266.627 362.052C266.577 362.361 266.577 362.361 266.236 362.634C266.186 362.943 266.186 362.943 266.136 363.252C266.086 363.561 266.037 363.871 266.037 363.871C265.987 364.18 265.987 364.18 266.229 364.525C266.179 364.835 266.471 364.871 266.421 365.18L266.663 365.525C266.663 365.525 266.906 365.871 267.197 365.907C267.489 365.943 267.489 365.943 267.781 365.98L268.073 366.016L268.365 366.052C268.365 366.052 268.657 366.088 268.707 365.779L269.048 365.506C268.707 365.779 268.707 365.779 268.415 365.743C268.123 365.707 268.073 366.016 267.781 365.98C267.489 365.943 267.489 365.943 267.148 366.216C266.856 366.18 266.856 366.18 266.564 366.144C266.272 366.108 266.272 366.108 265.98 366.072C265.688 366.035 265.688 366.035 265.446 365.69C265.154 365.654 265.204 365.344 264.912 365.308C264.962 364.999 264.67 364.963 264.72 364.653C264.77 364.344 264.478 364.308 264.528 363.999C264.577 363.69 264.627 363.38 264.627 363.38C264.677 363.071 264.727 362.762 264.727 362.762C264.776 362.453 264.826 362.143 265.118 362.18C265.168 361.87 265.46 361.907 265.509 361.597C265.851 361.324 265.851 361.324 266.193 361.051C266.485 361.088 266.534 360.778 266.826 360.815C267.118 360.851 268.335 360.687 268.627 360.723Z" fill="white"/>
<path d="M271.977 366.924C271.685 366.888 271.394 366.852 271.153 366.507C270.861 366.471 270.62 366.126 270.67 365.818C270.428 365.473 270.478 365.165 270.236 364.82C270.286 364.511 270.044 364.167 270.143 363.549C270.193 363.241 270.243 362.932 270.292 362.624C270.342 362.315 270.392 362.007 270.683 362.043C270.733 361.734 271.024 361.77 271.073 361.462C271.123 361.153 271.414 361.189 271.755 360.917C272.046 360.953 272.096 360.645 272.387 360.681C272.678 360.717 272.97 360.753 273.261 360.789C273.552 360.825 273.843 360.862 274.085 361.206C274.376 361.242 274.618 361.587 274.568 361.896C274.809 362.24 274.76 362.549 275.001 362.894C274.952 363.202 275.193 363.547 275.094 364.164C275.044 364.473 274.995 364.781 274.945 365.09C274.895 365.398 274.846 365.707 274.555 365.671C274.505 365.979 274.214 365.943 274.164 366.252C274.114 366.56 273.823 366.524 273.482 366.797C273.191 366.76 273.142 367.069 272.85 367.033C272.559 366.997 272.268 366.961 271.977 366.924ZM272.318 366.652C272.609 366.688 272.609 366.688 272.9 366.724C273.191 366.76 273.191 366.76 273.241 366.452C273.29 366.143 273.582 366.179 273.582 366.179C273.631 365.871 273.923 365.907 273.972 365.598C274.022 365.29 274.022 365.29 274.071 364.981C274.121 364.673 274.121 364.673 274.171 364.364C274.22 364.056 274.32 363.439 274.369 363.13C274.419 362.821 274.177 362.477 274.227 362.168C273.986 361.823 273.985 361.823 273.744 361.479C273.453 361.443 273.453 361.443 273.162 361.406C272.87 361.37 272.87 361.37 272.579 361.334C272.288 361.298 272.288 361.298 272.238 361.606L271.897 361.879C271.848 362.187 271.557 362.151 271.507 362.46C271.457 362.768 271.457 362.768 271.408 363.077C271.358 363.386 271.358 363.386 271.308 363.694C271.259 364.003 271.159 364.62 271.11 364.928C271.06 365.237 271.302 365.582 271.252 365.89C271.494 366.235 271.494 366.235 271.735 366.58C271.735 366.58 272.026 366.616 272.318 366.652Z" fill="white"/>
<path d="M276.647 362.572C276.693 362.269 276.694 362.269 276.694 362.269C276.694 362.269 276.694 362.269 276.411 362.232C276.411 362.232 276.411 362.232 276.128 362.195L275.845 362.158C275.845 362.158 275.845 362.158 275.891 361.855C276.174 361.892 276.457 361.929 276.457 361.929C276.74 361.966 276.74 361.966 276.74 361.966L277.023 362.003C277.023 362.003 277.023 362.003 276.976 362.306L276.93 362.609C276.93 362.609 276.93 362.609 276.883 362.912C276.883 362.912 276.837 363.215 276.79 363.517C276.744 363.82 276.697 364.123 276.651 364.426C276.604 364.729 276.557 365.031 276.511 365.334C276.464 365.637 276.418 365.94 276.325 366.545C276.278 366.848 276.232 367.151 276.138 367.757C275.856 367.72 275.856 367.72 275.573 367.683C275.619 367.38 275.712 366.774 275.759 366.472C275.805 366.169 275.899 365.563 275.945 365.26C275.992 364.958 276.085 364.352 276.131 364.049C276.507 363.48 276.554 363.178 276.647 362.572Z" fill="white"/>
<path d="M283.65 368.251L283.358 368.215L283.066 368.178L282.774 368.142C282.774 368.142 282.774 368.142 282.483 368.106L282.191 368.07C282.191 368.07 282.191 368.07 281.948 367.724L281.998 367.415C281.998 367.415 282.048 367.106 282.098 366.796C282.098 366.796 282.098 366.796 282.148 366.487L282.197 366.178L282.247 365.868L282.297 365.559L282.347 365.25L282.396 364.941L282.446 364.631C282.496 364.322 282.496 364.322 282.546 364.013C282.596 363.703 282.596 363.703 282.645 363.394L282.596 363.703L282.546 364.013C282.496 364.322 282.154 364.595 282.104 364.904C282.055 365.214 281.713 365.487 281.663 365.796C281.321 366.069 281.272 366.378 280.93 366.651C280.588 366.924 280.538 367.234 280.197 367.507L280.247 367.198C280.247 367.198 280.296 366.888 280.054 366.543C280.104 366.233 280.104 366.233 279.862 365.888C279.912 365.579 279.912 365.579 279.669 365.233C279.719 364.924 279.719 364.924 279.477 364.578C279.527 364.269 279.527 364.269 279.285 363.923C279.334 363.614 279.334 363.614 279.092 363.269C279.142 362.959 279.142 362.959 278.85 362.923L278.9 362.614L278.95 362.304C278.9 362.614 278.9 362.614 278.9 362.614C278.85 362.923 278.8 363.232 278.75 363.542C278.701 363.851 278.651 364.16 278.601 364.47C278.551 364.779 278.502 365.088 278.502 365.088C278.452 365.397 278.402 365.707 278.402 365.707C278.352 366.016 278.352 366.016 278.352 366.016L278.302 366.325C278.302 366.325 278.302 366.325 278.253 366.635C278.253 366.635 278.253 366.635 277.961 366.598C278.011 366.289 278.011 366.289 278.352 366.016C278.402 365.707 278.402 365.707 278.744 365.434C278.794 365.124 278.794 365.124 278.843 364.815C278.893 364.506 278.893 364.506 278.943 364.196C278.993 363.887 278.993 363.887 279.042 363.578C279.092 363.269 279.092 363.269 279.142 362.959C279.192 362.65 279.192 362.65 279.242 362.341C279.291 362.031 279.291 362.031 279.291 362.031C279.291 362.031 279.291 362.031 279.341 361.722C279.341 361.722 279.341 361.722 279.049 361.686C279.049 361.686 279.049 361.686 278.757 361.65C278.757 361.65 278.757 361.65 278.465 361.613C278.465 361.613 278.465 361.613 278.515 361.304C278.807 361.34 279.099 361.377 279.149 361.067C279.441 361.104 279.441 361.104 279.733 361.14C279.733 361.14 279.733 361.14 280.025 361.176C279.975 361.485 280.217 361.831 280.217 361.831C280.217 361.831 280.409 362.486 280.36 362.795C280.31 363.104 280.552 363.45 280.502 363.759C280.452 364.068 280.695 364.414 280.645 364.723L280.595 365.032L280.545 365.342C280.545 365.342 280.545 365.342 280.495 365.651C280.495 365.651 280.495 365.651 280.446 365.96C280.446 365.96 280.446 365.96 280.495 365.651C280.495 365.651 280.495 365.651 280.545 365.342C280.545 365.342 280.545 365.342 280.595 365.032L280.645 364.723C280.695 364.414 281.036 364.141 281.086 363.832C281.136 363.522 281.478 363.249 281.527 362.94C281.577 362.631 281.919 362.358 281.969 362.048C282.018 361.739 282.36 361.466 282.41 361.157C282.41 361.157 282.41 361.157 282.702 361.193C282.702 361.193 282.702 361.193 282.994 361.229C282.944 361.538 282.894 361.848 282.894 361.848C282.844 362.157 282.795 362.466 282.795 362.466C282.745 362.775 282.745 362.775 282.695 363.085C282.645 363.394 282.645 363.394 282.596 363.703C282.546 364.013 282.546 364.013 282.496 364.322C282.446 364.631 282.396 364.941 282.396 364.941C282.347 365.25 282.347 365.25 282.347 365.25L282.297 365.559C282.297 365.559 282.297 365.559 282.539 365.905C282.539 365.905 282.539 365.905 282.831 365.941C283.358 368.215 283.65 368.251 283.65 368.251C283.7 367.942 283.7 367.942 283.65 368.251Z" fill="white"/>
<path d="M285.447 363.835C285.497 363.527 285.497 363.527 285.447 363.835C285.497 363.527 285.206 363.491 285.206 363.491C285.206 363.491 285.206 363.491 284.916 363.455L284.625 363.419C284.625 363.419 284.625 363.419 284.674 363.111C284.965 363.147 284.965 363.147 285.256 363.183C285.546 363.219 285.546 363.219 285.837 363.255C286.128 363.291 286.128 363.291 286.418 363.327C286.709 363.364 286.709 363.364 287 363.4L287.29 363.436L287.581 363.472L287.872 363.508C287.872 363.508 288.162 363.544 288.113 363.852C288.063 364.16 288.063 364.16 288.354 364.196L288.304 364.504C288.255 364.812 288.255 364.812 288.205 365.12C288.156 365.428 287.865 365.392 287.865 365.392L287.525 365.664C287.234 365.628 287.234 365.628 286.894 365.9C287.185 365.936 287.475 365.972 287.475 365.972C287.766 366.008 287.766 366.008 288.007 366.352C288.298 366.389 288.248 366.697 288.248 366.697C288.199 367.005 288.199 367.005 288.149 367.313C288.1 367.621 288.1 367.621 288.05 367.929C288.001 368.237 288.001 368.237 287.71 368.201L287.37 368.472L287.03 368.744C286.739 368.708 286.739 368.708 286.448 368.672C286.158 368.636 286.158 368.636 285.867 368.6L285.576 368.564L285.286 368.528C284.995 368.492 284.995 368.492 284.705 368.455C284.754 368.147 284.754 368.147 284.804 367.839C284.853 367.531 284.903 367.223 284.903 367.223C284.903 367.223 285.002 366.607 285.051 366.299C285.101 365.991 285.15 365.683 285.2 365.375C285.249 365.067 285.299 364.759 285.348 364.451C285.348 364.451 285.398 364.143 285.447 363.835ZM285.286 368.528L285.576 368.564L285.867 368.6C286.158 368.636 286.158 368.636 286.448 368.672C286.739 368.708 286.739 368.708 287.079 368.436L287.419 368.164C287.469 367.856 287.469 367.856 287.518 367.548C287.568 367.24 287.568 367.24 287.617 366.932C287.667 366.624 287.376 366.588 287.376 366.588C287.376 366.588 287.135 366.244 286.845 366.208C286.554 366.172 286.263 366.136 286.263 366.136C286.263 366.136 286.263 366.136 285.973 366.1C285.973 366.1 285.973 366.1 285.682 366.064L285.632 366.372L285.583 366.68L285.533 366.988C285.484 367.296 285.484 367.296 285.434 367.604L285.385 367.912C285.335 368.22 285.335 368.22 285.286 368.528ZM286.128 363.291L286.078 363.599C286.078 363.599 286.029 363.907 285.979 364.215C285.93 364.523 285.93 364.523 285.88 364.831C285.831 365.139 285.831 365.139 285.781 365.447L286.072 365.484L286.362 365.52C286.362 365.52 286.653 365.556 286.702 365.248C286.702 365.248 286.993 365.284 287.043 364.976C287.043 364.976 287.092 364.668 287.383 364.704L287.432 364.396C287.482 364.088 287.482 364.088 287.531 363.78L287.29 363.436C287.29 363.436 287 363.4 287.049 363.092C287.049 363.092 286.759 363.056 286.468 363.019C286.418 363.327 286.418 363.327 286.128 363.291Z" fill="white"/>
<path d="M289.994 364.476C290.044 364.167 290.044 364.167 289.994 364.476C290.044 364.167 290.044 364.167 289.994 364.476C290.044 364.167 289.752 364.131 289.752 364.131C289.752 364.131 289.752 364.131 289.46 364.095L289.168 364.058C289.168 364.058 289.168 364.058 289.218 363.749C289.51 363.785 289.51 363.785 289.802 363.821C290.094 363.858 290.094 363.858 290.386 363.894C290.678 363.93 290.678 363.93 290.97 363.966C291.261 364.003 291.261 364.003 291.553 364.039C291.845 364.075 292.137 364.111 292.137 364.111C292.429 364.148 292.429 364.148 292.671 364.493C292.963 364.529 292.913 364.839 292.913 364.839C292.913 364.839 292.864 365.148 292.814 365.457C292.764 365.766 292.764 365.766 292.714 366.076C292.664 366.385 292.373 366.349 292.323 366.658C292.323 366.658 291.981 366.931 291.689 366.895C291.397 366.858 291.347 367.168 291.056 367.132C291.298 367.477 291.248 367.786 291.54 367.823C291.49 368.132 291.782 368.168 291.732 368.477C291.682 368.787 291.974 368.823 291.974 368.823L292.216 369.168C292.216 369.168 292.216 369.168 292.459 369.514C292.459 369.514 292.459 369.514 292.751 369.55C292.751 369.55 292.751 369.55 293.042 369.586C293.042 369.586 293.042 369.586 293.334 369.622C293.334 369.622 293.334 369.622 293.626 369.659C293.626 369.659 293.626 369.659 293.918 369.695C293.918 369.695 293.918 369.695 293.868 370.004C293.577 369.968 293.527 370.277 293.235 370.241C292.943 370.205 292.943 370.205 292.943 370.205C292.943 370.205 292.943 370.205 292.651 370.169C292.651 370.169 292.651 370.169 292.359 370.132C292.359 370.132 292.359 370.132 292.067 370.096L291.825 369.751C291.825 369.751 291.583 369.405 291.633 369.096C291.391 368.75 291.391 368.75 291.148 368.405C290.906 368.059 290.956 367.75 290.714 367.405C291.006 367.441 291.298 367.477 291.298 367.477C291.59 367.513 291.639 367.204 291.931 367.24L292.273 366.967C292.323 366.658 292.323 366.658 292.373 366.349C292.422 366.039 292.472 365.73 292.23 365.385C291.988 365.039 291.696 365.003 291.404 364.967L291.112 364.93L290.82 364.894C290.82 364.894 290.77 365.203 290.721 365.513C290.671 365.822 290.671 365.822 290.621 366.131C290.571 366.441 290.522 366.75 290.472 367.059C290.422 367.368 290.372 367.678 290.322 367.987C290.273 368.296 290.223 368.605 290.173 368.915C290.123 369.224 290.074 369.533 289.974 370.152C289.682 370.116 289.682 370.116 289.39 370.079C289.44 369.77 289.539 369.152 289.589 368.842C289.639 368.533 289.739 367.914 289.788 367.605C289.838 367.296 289.938 366.677 289.987 366.368C290.037 366.059 289.944 364.786 289.994 364.476Z" fill="white"/>
<path d="M294.014 368.278C293.964 368.588 293.964 368.588 293.964 368.588L293.914 368.899L293.864 369.21C293.864 369.21 293.864 369.21 293.814 369.52C294.157 369.246 294.257 368.625 294.6 368.351C294.943 368.076 294.993 367.766 295.386 367.181C295.386 367.181 295.386 367.181 295.68 367.217C296.073 366.632 296.466 366.048 296.859 365.463C297.252 364.878 297.302 364.567 297.645 364.293C297.645 364.293 297.645 364.293 297.938 364.329C297.838 364.951 298.081 365.298 297.981 365.919C297.931 366.23 298.125 366.887 298.075 367.198C298.025 367.509 298.268 367.856 298.218 368.166C298.168 368.477 298.118 368.788 298.411 368.824C298.361 369.135 298.361 369.135 298.655 369.171C298.655 369.171 298.605 369.482 298.898 369.518C299.191 369.555 298.898 369.518 299.191 369.555L299.484 369.591C299.484 369.591 299.484 369.591 299.777 369.628C299.777 369.628 299.777 369.628 300.07 369.664C300.07 369.664 300.07 369.664 300.02 369.975C299.727 369.938 299.677 370.249 299.384 370.212C299.091 370.176 299.091 370.176 298.798 370.14C298.798 370.14 298.798 370.14 298.505 370.103C298.505 370.103 298.505 370.103 298.212 370.067C297.918 370.03 298.212 370.067 297.968 369.72C297.968 369.72 298.018 369.409 297.725 369.373C297.775 369.062 297.775 369.062 297.532 368.715C297.582 368.404 297.632 368.094 297.389 367.747C297.095 367.71 296.802 367.674 296.509 367.637C296.216 367.601 295.63 367.528 295.63 367.528C295.63 367.528 295.58 367.839 295.287 367.802C294.307 368.314 294.307 368.314 294.014 368.278ZM296.266 367.29C296.316 366.98 296.316 366.979 296.366 366.669C296.416 366.358 296.416 366.358 296.466 366.048C296.516 365.737 296.516 365.737 296.565 365.426C296.615 365.116 296.665 364.805 296.372 364.769C295.979 365.353 295.929 365.664 295.536 366.249C295.193 366.523 295.093 367.144 294.75 367.419C295.043 367.455 295.336 367.491 295.63 367.528C295.63 367.528 295.973 367.254 296.266 367.29Z" fill="white"/>
</g>
</svg>
