<svg width="16" height="21" viewBox="0 0 16 21" fill="none" xmlns="http://www.w3.org/2000/svg">
<path d="M15.464 4.84698L8.32293 1.04187C8.21699 0.985326 8.09002 0.986119 7.98487 1.04385L1.04144 4.84896C0.92756 4.91146 0.856934 5.03089 0.856934 5.16083V10.1313C0.8611 14.2171 3.28185 17.9135 7.02546 19.5504L7.98924 19.9704C8.07931 20.0097 8.18187 20.0099 8.27214 19.9708L9.35813 19.5018C13.1712 17.9004 15.6518 14.1683 15.6522 10.0327V5.16083C15.6522 5.0295 15.5798 4.90868 15.464 4.84698ZM14.9412 10.0327C14.9404 13.8832 12.6302 17.3576 9.07978 18.8477L9.0774 18.8489L8.13168 19.2572L7.30995 18.8987C3.82524 17.3751 1.57173 13.9346 1.56776 10.1313V5.37132L8.15807 1.75944L14.9412 5.3739V10.0327Z" fill="#27AE60" stroke="#27AE60" stroke-width="0.5"/>
<path d="M5.53521 9.90074C5.40764 9.75136 5.18327 9.7337 5.03388 9.86127C4.88449 9.98863 4.86684 10.2132 4.9944 10.3624L6.87235 12.5615C6.99774 12.7084 7.21735 12.7284 7.36694 12.6066L11.7406 9.04827C11.893 8.92447 11.916 8.70049 11.792 8.54813C11.6682 8.39596 11.4442 8.37275 11.2919 8.49674L7.18759 11.8356L5.53521 9.90074Z" fill="#27AE60" stroke="#27AE60" stroke-width="0.5"/>
</svg>
