<svg width="42" height="40" viewBox="0 0 42 40" fill="none" xmlns="http://www.w3.org/2000/svg">
<g opacity="0.06">
<path d="M38.1956 14.9315C36.4213 12.2264 34.123 10.6751 31.8902 10.6751C30.6178 10.6751 29.3755 11.1903 28.2605 12.1703C27.1454 11.1903 25.9027 10.6751 24.6298 10.6751C24.4136 10.6751 24.1979 10.691 23.9834 10.7203L24.8191 3.85605C24.8609 3.51328 24.7077 3.17722 24.4316 3.00533L21.3898 1.11275C21.1868 0.986421 20.9423 0.965041 20.7234 1.05472C20.5044 1.14431 20.3337 1.33555 20.2579 1.57599L17.391 10.6754C17.3841 10.6754 17.3771 10.6751 17.3702 10.6751C16.0977 10.6751 14.855 11.1902 13.7395 12.1698C12.6236 11.1903 11.3813 10.6751 10.1098 10.6751C7.87695 10.6751 5.57867 12.2264 3.80437 14.9315C1.99602 17.6884 1 21.2067 1 24.838C1 28.469 1.99602 31.987 3.80445 34.7439C5.57883 37.4488 7.87703 39.0001 10.1098 39.0001C11.3828 39.0001 12.6253 38.4848 13.7398 37.5051C14.8548 38.4848 16.0974 39.0001 17.3702 39.0001C18.6423 39.0001 19.8851 38.4864 20.9999 37.5069C22.1148 38.4864 23.3576 39.0001 24.6297 39.0001C25.9023 39.0001 27.1448 38.4851 28.2603 37.5055C29.3756 38.485 30.618 39.0001 31.8902 39.0001C34.123 39.0001 36.4212 37.4488 38.1955 34.7439C40.004 31.987 41 28.469 41 24.838C41 21.2067 40.004 17.6885 38.1956 14.9315ZM10.1098 37.2966C8.41602 37.2966 6.53648 35.9728 5.08203 33.7555C3.46125 31.2847 2.56859 28.1178 2.56859 24.838C2.56859 21.5579 3.46125 18.3907 5.08203 15.9198C6.53656 13.7024 8.41609 12.3786 10.1098 12.3786C10.9641 12.3786 11.818 12.721 12.6128 13.3745C10.5426 16.0199 9.32547 20.2199 9.32547 24.838C9.32547 29.4562 10.5427 33.6559 12.6131 36.3005C11.8195 36.9541 10.9653 37.2966 10.1098 37.2966ZM20.2159 35.9951C19.3277 36.8472 18.3498 37.2967 17.3704 37.2967C16.3027 37.2966 15.2368 36.7646 14.2877 35.7579C12.1945 33.5382 10.8941 29.3539 10.8941 24.8379C10.8941 20.3285 12.1907 16.1496 14.2781 13.9268C14.2791 13.9259 14.28 13.9252 14.2809 13.9242C14.2838 13.9212 14.2863 13.9179 14.2891 13.915C15.2381 12.9099 16.3036 12.3786 17.3702 12.3786C17.5263 12.3786 17.6825 12.3899 17.8371 12.4124C17.8373 12.4124 17.8374 12.4125 17.8376 12.4125C17.8385 12.4127 17.8395 12.4128 17.8404 12.4129C18.667 12.5312 19.4647 12.9579 20.2158 13.6806V35.9951H20.2159ZM18.9634 10.9465L21.4345 3.10375L23.1951 4.19915L22.3369 11.2474C21.8754 11.4841 21.4285 11.7917 21.0004 12.1682C20.3552 11.599 19.6739 11.1911 18.9634 10.9465ZM27.714 35.7571C27.7112 35.76 27.7082 35.7625 27.7055 35.7655C27.7046 35.7664 27.7039 35.7675 27.703 35.7684C26.756 36.768 25.6937 37.2965 24.6298 37.2965C23.6505 37.2965 22.6725 36.847 21.7844 35.995V13.6802C22.2782 13.2056 22.797 12.8555 23.3309 12.6388C23.3316 12.6385 23.3322 12.6383 23.3329 12.638C23.3334 12.6378 23.334 12.6376 23.3345 12.6374C23.7577 12.4657 24.1935 12.3786 24.6298 12.3786C25.6973 12.3786 26.7633 12.9107 27.7124 13.9173C29.8056 16.137 31.1059 20.3216 31.1059 24.838C31.1059 29.3526 29.806 33.5364 27.714 35.7571ZM36.918 33.7555C35.4634 35.9728 33.5839 37.2966 31.8902 37.2966C31.0354 37.2966 30.1814 36.9543 29.3871 36.3008C31.4574 33.6555 32.6745 29.4558 32.6745 24.838C32.6745 22.3653 32.3132 19.9343 31.6297 17.8078C31.0687 16.0627 30.3004 14.5496 29.3861 13.3756C30.1805 12.7213 31.0349 12.3786 31.8902 12.3786C33.584 12.3786 35.4635 13.7024 36.918 15.9198C38.5388 18.3907 39.4314 21.5579 39.4314 24.838C39.4314 28.1178 38.5388 31.2847 36.918 33.7555Z" fill="#2A2A2A" stroke="#2A2A2A"/>
<path d="M37.4194 22.3491C37.3415 21.8865 36.9333 21.5797 36.5067 21.6645C36.0806 21.7491 35.7984 22.1928 35.8762 22.6556C36.12 24.1035 36.12 25.5715 35.8762 27.0189C35.7983 27.4816 36.0805 27.9254 36.5067 28.01C36.5544 28.0194 36.6019 28.0241 36.6487 28.0241C37.0202 28.0241 37.3501 27.7364 37.4194 27.3254C37.6975 25.6745 37.6975 24.0003 37.4194 22.3491Z" fill="#2A2A2A" stroke="#2A2A2A"/>
<path d="M36.033 19.063C35.0237 19.063 35.0219 20.7665 36.033 20.7665C37.0423 20.7665 37.044 19.063 36.033 19.063Z" fill="#2A2A2A" stroke="#2A2A2A"/>
</g>
</svg>
