<svg width="14" height="22" viewBox="0 0 14 22" fill="none" xmlns="http://www.w3.org/2000/svg">
<path d="M8.60325 16.0962C8.60325 16.0962 8.69941 15.7308 9.37248 15.4423C9.73787 15.25 10.0648 15.0192 10.3725 14.7692C11.2956 13.9615 12.3917 12.6538 12.7379 11.3077C13.1994 9.48077 13.2956 8.03846 12.7956 5.67308C12.2956 3.28846 11.2571 0.269235 11.2571 0.269235C11.2571 0.269235 9.91095 0 6.58402 0H6.54556C3.21864 0 1.87249 0.269235 1.87249 0.269235C1.87249 0.269235 0.814793 3.30769 0.334024 5.67308C-0.165976 8.05769 -0.0698222 9.48077 0.391716 11.3077C0.718639 12.6346 1.81479 13.9615 2.7571 14.7692C3.06479 15.0385 3.41095 15.25 3.7571 15.4423C4.41095 15.7308 4.52633 16.0962 4.52633 16.0962C4.52633 16.0962 5.29556 18 5.62248 19.0769C5.94941 20.1538 4.79556 20.5 4.79556 20.5C4.79556 20.5 1.60325 21.3269 1.48787 21.3461C1.27633 21.4038 1.23787 21.7308 1.41095 21.7885C2.31479 21.9423 6.10325 21.9808 6.54556 22H6.58402C7.02633 22 10.834 21.9423 11.7186 21.7885C11.8917 21.75 11.8533 21.4038 11.6417 21.3461C11.5263 21.3269 8.33402 20.5 8.33402 20.5C8.33402 20.5 7.18018 20.1731 7.5071 19.0769C7.85325 18.0192 8.60325 16.0962 8.60325 16.0962Z" fill="white"/>
</svg>
