<svg width="20" height="19" viewBox="0 0 20 19" fill="none" xmlns="http://www.w3.org/2000/svg">
<path d="M6.4438 11.6668H6.44471C6.44548 11.6668 6.44624 11.6667 6.447 11.6667H17.0703C17.3319 11.6667 17.5618 11.494 17.6337 11.2436L19.9775 3.07694C20.028 2.90087 19.9926 2.71159 19.8819 2.56546C19.7712 2.41932 19.598 2.33334 19.4141 2.33334H5.09248L4.67362 0.456793C4.61396 0.189887 4.37623 0 4.10157 0H0.585939C0.262299 0 0 0.261133 0 0.583334C0 0.905535 0.262299 1.16667 0.585939 1.16667H3.6316C3.70576 1.4992 5.636 10.1468 5.74708 10.6443C5.12437 10.9138 4.68751 11.5319 4.68751 12.25C4.68751 13.215 5.47608 14 6.44532 14H17.0703C17.394 14 17.6563 13.7389 17.6563 13.4167C17.6563 13.0945 17.394 12.8334 17.0703 12.8334H6.44532C6.12229 12.8334 5.85939 12.5716 5.85939 12.25C5.85939 11.9289 6.12138 11.6676 6.4438 11.6668ZM18.6373 3.50001L16.6283 10.5H6.9153L5.35279 3.50001H18.6373Z" fill="white"/>
<path d="M5.85938 16.5194C5.85938 17.4843 6.64795 18.2694 7.61719 18.2694C8.58643 18.2694 9.37501 17.4843 9.37501 16.5194C9.37501 15.5545 8.58643 14.7694 7.61719 14.7694C6.64795 14.7694 5.85938 15.5545 5.85938 16.5194ZM7.61719 15.9361C7.94022 15.9361 8.20313 16.1978 8.20313 16.5194C8.20313 16.841 7.94022 17.1027 7.61719 17.1027C7.29416 17.1027 7.03125 16.841 7.03125 16.5194C7.03125 16.1978 7.29416 15.9361 7.61719 15.9361Z" fill="white"/>
<path d="M14.1406 16.5194C14.1406 17.4843 14.9292 18.2694 15.8984 18.2694C16.8677 18.2694 17.6563 17.4843 17.6563 16.5194C17.6563 15.5545 16.8677 14.7694 15.8984 14.7694C14.9292 14.7694 14.1406 15.5545 14.1406 16.5194ZM15.8984 15.9361C16.2215 15.9361 16.4844 16.1978 16.4844 16.5194C16.4844 16.841 16.2215 17.1027 15.8984 17.1027C15.5754 17.1027 15.3125 16.841 15.3125 16.5194C15.3125 16.1978 15.5754 15.9361 15.8984 15.9361Z" fill="white"/>
</svg>
