<svg width="40" height="40" viewBox="0 0 40 40" fill="none" xmlns="http://www.w3.org/2000/svg">
<g opacity="0.06">
<path d="M38.2578 25.1801H36.5879L24.6535 7.47148C23.607 5.92031 21.8703 5 20 5C18.1297 5 16.393 5.92031 15.3465 7.47148L3.41211 25.1801H1.74219C1.33398 25.1801 1 25.5141 1 25.9223C1 31.1621 5.26016 35.4223 10.5 35.4223H29.5C34.7398 35.4223 39 31.1621 39 25.9223C39 25.5141 38.666 25.1801 38.2578 25.1801ZM17.2168 26.6645H37.4785C37.1 30.7391 33.6637 33.9379 29.4926 33.9379H10.5C6.32891 33.9379 2.89258 30.7391 2.51406 26.6645H17.2168ZM17.2168 25.1801H5.20078L16.5785 8.30273C17.3578 7.14492 18.6047 6.48438 20 6.48438C21.3953 6.48438 22.6422 7.14492 23.4215 8.30273L34.7992 25.1801H17.2168Z" fill="#2A2A2A" stroke="#2A2A2A" stroke-width="1.5"/>
<path d="M21.1133 8.66748C20.9203 8.66748 20.7273 8.74912 20.5863 8.88271C20.4453 9.01631 20.3711 9.2167 20.3711 9.40967C20.3711 9.60264 20.4527 9.79561 20.5863 9.93662C20.7199 10.0776 20.9129 10.1519 21.1133 10.1519C21.3062 10.1519 21.4992 10.0702 21.6402 9.93662C21.7812 9.80303 21.8555 9.61006 21.8555 9.40967C21.8555 9.20928 21.7738 9.02373 21.6402 8.88271C21.5066 8.7417 21.3062 8.66748 21.1133 8.66748Z" fill="#2A2A2A" stroke="#2A2A2A" stroke-width="1.5"/>
<path d="M24.6016 14.1968C24.7945 14.1968 24.9875 14.1151 25.1285 13.9815C25.2695 13.8479 25.3438 13.655 25.3438 13.4546C25.3438 13.2542 25.2621 13.0687 25.1285 12.9276C24.9949 12.7866 24.802 12.7124 24.6016 12.7124C24.4012 12.7124 24.2156 12.794 24.0746 12.9276C23.9336 13.0612 23.8594 13.2542 23.8594 13.4546C23.8594 13.655 23.941 13.8405 24.0746 13.9815C24.2082 14.1226 24.4086 14.1968 24.6016 14.1968Z" fill="#2A2A2A" stroke="#2A2A2A" stroke-width="1.5"/>
<path d="M20.1855 12.1929C19.9926 12.1929 19.7996 12.2745 19.6586 12.4081C19.5176 12.5491 19.4434 12.7347 19.4434 12.9351C19.4434 13.128 19.525 13.321 19.6586 13.462C19.7996 13.603 19.9852 13.6772 20.1855 13.6772C20.3859 13.6772 20.5715 13.5956 20.7125 13.462C20.8535 13.321 20.9277 13.1354 20.9277 12.9351C20.9277 12.7421 20.8461 12.5491 20.7125 12.4081C20.5715 12.2671 20.3785 12.1929 20.1855 12.1929Z" fill="#2A2A2A" stroke="#2A2A2A" stroke-width="1.5"/>
</g>
</svg>
