<svg width="22" height="15" viewBox="0 0 22 15" fill="none" xmlns="http://www.w3.org/2000/svg">
<path d="M6.0999 5.41887C4.44577 5.41887 3.1001 6.76455 3.1001 8.41867C3.1001 10.0728 4.44577 11.4185 6.0999 11.4185C7.75402 11.4185 9.0997 10.0728 9.0997 8.41867C9.0997 6.76455 7.75402 5.41887 6.0999 5.41887ZM6.0999 10.1573C5.14127 10.1573 4.36141 9.3773 4.36141 8.41867C4.36141 7.46004 5.14127 6.68002 6.0999 6.68002C7.05853 6.68002 7.83855 7.46004 7.83855 8.41867C7.83855 9.3773 7.05853 10.1573 6.0999 10.1573Z" fill="white"/>
<path d="M16.2321 5.41887C14.578 5.41887 13.2322 6.76455 13.2322 8.41867C13.2322 10.0728 14.578 11.4185 16.2321 11.4185C17.8861 11.4185 19.2319 10.0728 19.2319 8.41867C19.2319 6.76455 17.8863 5.41887 16.2321 5.41887ZM16.2321 10.1573C15.2733 10.1573 14.4935 9.3773 14.4935 8.41867C14.4935 7.46004 15.2733 6.68002 16.2321 6.68002C17.1908 6.68002 17.9706 7.46004 17.9706 8.41867C17.9706 9.3773 17.1908 10.1573 16.2321 10.1573Z" fill="white"/>
<path d="M22 2.72209H17.1706C15.7338 1.32649 13.5137 0.5 11.1659 0.5C8.91385 0.5 6.6425 1.34626 5.16385 2.72209H0.443195L1.72955 4.76902C0.902243 5.75814 0.40332 7.03115 0.40332 8.41867C0.40332 11.5598 2.9589 14.1153 6.09991 14.1153C7.72372 14.1153 9.19083 13.4323 10.2294 12.3387L11.1659 14.5L12.1023 12.3387C13.141 13.4325 14.6081 14.1153 16.2319 14.1153C19.3729 14.1153 21.9285 11.5598 21.9285 8.41867C21.9285 7.0669 21.4548 5.82388 20.6652 4.84597L22 2.72209ZM15.2201 2.81205C13.4519 3.13039 11.9646 4.26746 11.1659 5.81531C10.3727 4.27817 8.90034 3.14637 7.14834 2.81914C8.30338 2.14968 9.73506 1.76115 11.1659 1.76115C12.6642 1.76115 14.0912 2.14094 15.2201 2.81205ZM6.09991 12.8541C3.65423 12.8541 1.66463 10.8644 1.66463 8.41867C1.66463 5.973 3.65423 3.9834 6.09991 3.9834C8.54559 3.9834 10.5352 5.973 10.5352 8.41867C10.5352 10.8644 8.54559 12.8541 6.09991 12.8541ZM16.2319 12.8541C13.7863 12.8541 11.7965 10.8644 11.7965 8.41867C11.7965 5.973 13.7863 3.9834 16.2319 3.9834C18.6775 3.9834 20.6672 5.973 20.6672 8.41867C20.6672 10.8644 18.6776 12.8541 16.2319 12.8541Z" fill="white"/>
<path d="M6.09994 7.75745C5.73531 7.75745 5.43872 8.05404 5.43872 8.41868C5.43872 8.78315 5.73531 9.07973 6.09994 9.07973C6.46458 9.07973 6.76116 8.78315 6.76116 8.41868C6.76116 8.05404 6.46458 7.75745 6.09994 7.75745Z" fill="white"/>
<path d="M16.2617 7.75745C15.897 7.75745 15.6005 8.05404 15.6005 8.41868C15.6005 8.78315 15.897 9.07973 16.2617 9.07973C16.6263 9.07973 16.9229 8.78315 16.9229 8.41868C16.9229 8.05404 16.6263 7.75745 16.2617 7.75745Z" fill="white"/>
</svg>
