<svg width="22" height="19" viewBox="0 0 22 19" fill="none" xmlns="http://www.w3.org/2000/svg">
<path d="M10.0835 10.5487L4.74396 18.0074C4.46866 18.3916 4.0077 18.59 3.54673 18.5324C3.01534 18.4684 2.28548 18.2699 1.53641 17.7257C0.780938 17.1815 0.364788 16.5541 0.127903 16.0739C-0.0769709 15.6514 -0.032155 15.152 0.236742 14.7679L5.57626 7.30918C5.83235 6.95705 6.16528 6.66254 6.54941 6.45767L7.59939 5.90067C7.81067 5.79183 7.99633 5.63818 8.15639 5.46531C8.66858 4.88911 10.0323 3.37176 12.4651 0.91968L12.51 0.727611C12.5228 0.682795 12.5548 0.644381 12.5996 0.637979L12.734 0.605967C12.7917 0.593163 12.8301 0.535542 12.8237 0.477921L12.8109 0.311462C12.8045 0.241036 12.8557 0.183416 12.9261 0.183416C13.0862 0.177013 13.3999 0.228232 13.8416 0.541944C14.2834 0.862059 14.4306 1.14376 14.4755 1.29742C14.4947 1.36144 14.4563 1.43186 14.3858 1.45107L14.2258 1.48948C14.1682 1.50229 14.1297 1.55991 14.1297 1.61753L14.1425 1.75838C14.1489 1.8032 14.1233 1.84801 14.0849 1.87362L13.9121 1.97606C12.3755 5.06197 11.3767 6.84821 10.9926 7.52045C10.871 7.72533 10.7941 7.95581 10.7557 8.19269L10.5701 9.37072C10.506 9.78046 10.3396 10.1902 10.0835 10.5487ZM21.7613 14.7615L16.4218 7.30277C16.1657 6.95065 15.8328 6.65614 15.4486 6.45127L14.3986 5.89427C14.1874 5.78543 14.0017 5.63177 13.8416 5.45891C13.7136 5.31806 13.5343 5.11319 13.3038 4.85709C13.2654 4.81868 13.2014 4.82508 13.1758 4.8763C12.3691 6.43206 11.8185 7.39881 11.5752 7.83416C11.4984 7.97502 11.4408 8.12227 11.4152 8.27592C11.3639 8.60884 11.3639 8.95457 11.4152 9.28749L11.4216 9.34511C11.492 9.77406 11.6585 10.1838 11.9145 10.5423L17.2541 18.001C17.523 18.3788 17.9775 18.5836 18.4385 18.526C18.9699 18.462 19.7061 18.2635 20.4616 17.7193C21.2171 17.1751 21.6332 16.5477 21.8701 16.0675C22.075 15.645 22.0366 15.1456 21.7613 14.7615ZM7.6122 1.43827L7.77225 1.47668C7.82987 1.48948 7.86829 1.54711 7.86829 1.60473L7.85548 1.74558C7.84908 1.79039 7.87469 1.83521 7.9131 1.86082L8.08597 1.96325C8.36767 2.53306 8.63656 3.05805 8.87985 3.53822C8.90546 3.58304 8.96308 3.59584 9.00149 3.55743C9.40484 3.12847 9.88501 2.61629 10.4548 2.02728C10.4996 1.97606 10.506 1.89923 10.4548 1.85442C10.1667 1.55991 9.86581 1.2526 9.53289 0.91968L9.48807 0.727611C9.48167 0.682795 9.44325 0.650784 9.39844 0.637979L9.26399 0.605967C9.20637 0.593163 9.16795 0.535542 9.17436 0.477921L9.18716 0.311462C9.19356 0.241036 9.14235 0.183416 9.07192 0.183416C8.91186 0.177013 8.59815 0.221829 8.14999 0.541944C7.70823 0.862059 7.56098 1.14376 7.51616 1.29742C7.50336 1.35504 7.54817 1.42546 7.6122 1.43827Z" fill="white"/>
</svg>
