<svg width="40" height="27" viewBox="0 0 40 27" fill="none" xmlns="http://www.w3.org/2000/svg">
<g opacity="0.06">
<path d="M35.5 2.1938C34 3.71255 32.6666 3.71255 31.1666 2.1938C29.1666 -0.337447 25.5 -0.674972 23 1.35002C22.1666 2.025 21.6666 3.03749 20.6666 3.37502C19.5 3.71255 18.6666 3.03749 17.8333 2.1938C15.8333 -0.337447 12.1666 -0.674972 9.66664 1.35002C8.83328 2.025 8.33328 3.03749 7.33328 3.37502C6.16664 3.71255 5.33328 3.03749 4.49992 2.1938C3.33336 0.843775 1.66664 7.96615e-05 0 7.96615e-05V3.3751C1 3.3751 1.33336 3.71263 2.16664 4.55632C3.33336 5.90627 5 6.75004 6.66664 6.75004C8.33328 6.75004 10 5.90627 11.1666 4.55632C12.1666 3.03757 14.5 3.03757 15.5 4.55632C17.5 7.08757 21.1666 7.42509 23.6666 5.4001C24 5.06257 24.3333 4.89385 24.5 4.55632C25.5 3.03757 27.8334 3.03757 28.8334 4.55632C30.8334 7.08757 34.5 7.42509 37 5.4001C37.3334 5.06257 37.6666 4.89385 37.8334 4.55632C38.6666 3.71255 39 3.37502 40 3.37502V0C38.3334 7.91014e-05 36.6666 0.843775 35.5 2.1938Z" fill="#2A2A2A"/>
<path d="M35.5 12.3187C34.6666 13.1625 34.3334 13.5 33.3334 13.5C32.3334 13.5 32 13.1624 31.1667 12.3187C29.1667 9.78749 25.5001 9.44997 23.0001 11.475C22.1667 12.1499 21.6667 13.1624 20.6667 13.5C19.5001 13.8375 18.6667 13.1624 17.8334 12.3187C15.8334 9.78749 12.1667 9.44997 9.66672 11.475C8.83336 12.1499 8.33336 13.1624 7.16672 13.5C6.00008 13.8375 5.16672 13.1624 4.33336 12.3187C3.33336 10.9687 1.66664 10.125 0 10.125V13.5C1 13.5 1.33336 13.8376 2.16664 14.6813C3.33336 16.0312 5 16.875 6.66664 16.875C8.33328 16.875 10 16.0312 11.1666 14.6813C12.1666 13.1625 14.5 13.1625 15.5 14.6813C17.5 17.2125 21.1666 17.55 23.6666 15.525C24.5 14.85 25 13.8375 26 13.6688C27 13.5 28.1666 13.8375 28.8334 14.6813C30.8334 17.2125 34.5 17.55 37 15.525C37.3334 15.1875 37.6666 15.0188 37.8334 14.6813C38.6666 13.8375 39 13.5 40 13.5V10.1249C38.3334 10.125 36.6666 10.9687 35.5 12.3187Z" fill="#2A2A2A"/>
<path d="M35.5 22.4437C34.6666 23.2875 34.3334 23.625 33.3334 23.625C32.3334 23.625 32 23.2874 31.1667 22.4437C29.1667 19.9125 25.5001 19.575 23.0001 21.6C22.1667 22.2749 21.6667 23.2874 20.6667 23.625C19.5001 23.9625 18.6667 23.2874 17.8334 22.4437C15.8334 19.9125 12.1667 19.575 9.66672 21.6C9.33336 21.9375 9.00008 22.1062 8.83336 22.4437C7.33336 23.9625 6 23.9625 4.5 22.4437C3.33336 21.0937 1.66664 20.25 0 20.25V23.625C1 23.625 1.33336 23.9626 2.16664 24.8063C3.33336 26.1562 5 27 6.66664 27C8.33328 27 10 26.1562 11.1666 24.8063C12.1666 23.2875 14.5 23.2875 15.5 24.8063C17.5 27.3375 21.1666 27.675 23.6666 25.65C24 25.3125 24.3333 25.1438 24.5 24.8063C25.5 23.2875 27.8334 23.2875 28.8334 24.8063C30.8334 27.3375 34.5 27.675 37 25.65C37.3334 25.3125 37.6666 25.1438 37.8334 24.8063C38.6666 23.9625 39 23.625 40 23.625V20.2499C38.3334 20.25 36.6666 21.0937 35.5 22.4437Z" fill="#2A2A2A"/>
</g>
</svg>
