<svg width="40" height="41" viewBox="0 0 40 41" fill="none" xmlns="http://www.w3.org/2000/svg">
<g opacity="0.06">
<path d="M39.5226 14.2145C39.2479 13.9691 37.6446 12.5689 35.6876 11.5031C36.114 11.2134 36.5076 10.8945 36.8527 10.5526C39.1933 8.23298 39.5372 2.86981 39.5687 2.26583C39.6127 1.42159 38.9114 0.717719 38.0496 0.760469C37.4403 0.791691 32.0286 1.13243 29.6879 3.45207C29.3417 3.79517 29.0202 4.18481 28.7278 4.6044C27.6526 2.66632 26.2409 1.07857 25.9934 0.806586C25.419 0.17509 24.4188 0.176184 23.8453 0.806586C23.5172 1.1671 21.1443 3.83792 20.2207 6.57446C20.2133 6.56621 20.2043 6.55628 20.1984 6.54972C19.6239 5.91831 18.6238 5.91923 18.0502 6.54972C17.7221 6.91024 15.3493 9.58097 14.4256 12.3176C14.4183 12.3095 14.4093 12.2995 14.4034 12.2929C13.8289 11.6614 12.8288 11.6625 12.2552 12.2929C11.9272 12.6534 9.55429 15.3241 8.63066 18.0607C8.62336 18.0526 8.61436 18.0426 8.60842 18.036C8.03388 17.4045 7.03383 17.4056 6.46023 18.036C6.05162 18.4851 2.4681 22.5185 2.4681 25.7989C2.4681 28.2716 3.74846 31.1492 5.51979 32.4785L0.42363 37.8866C-0.141143 38.4463 -0.141143 39.3538 0.42363 39.9135C0.706059 40.1934 1.07621 40.3334 1.44618 40.3334C1.81616 40.3334 2.18647 40.1935 2.46882 39.9135L7.56472 34.5056C8.90639 36.2607 11.8096 37.5292 14.3042 37.5292C17.6143 37.5292 21.6841 33.9778 22.1373 33.5729C22.7745 33.0035 22.7733 32.0124 22.1373 31.4439C22.1307 31.4379 22.1207 31.4291 22.1124 31.4219C24.8736 30.5064 27.5686 28.1548 27.9324 27.8297C28.5696 27.2603 28.5684 26.2693 27.9324 25.7008C27.9258 25.6949 27.9157 25.686 27.9074 25.6787C30.6687 24.7634 33.3636 22.4117 33.7273 22.0866C34.3645 21.5172 34.3634 20.5261 33.7273 19.9577C33.7207 19.9518 33.7107 19.9428 33.7024 19.9356C36.4637 19.0203 39.1586 16.6686 39.5224 16.3436C40.1597 15.7741 40.1587 14.783 39.5226 14.2145ZM31.7332 5.47902C32.6055 4.6145 34.7083 4.0659 36.5015 3.79988C36.2331 5.5774 35.6795 7.66107 34.8073 8.52567C33.9836 9.34197 32.826 9.89276 31.813 10.1485C31.9119 9.68936 31.7823 9.19167 31.4223 8.83494C31.0616 8.47745 30.558 8.34937 30.0939 8.4485C30.3704 7.37132 30.9667 6.23852 31.7332 5.47902ZM24.9203 4.03913C25.9982 5.48154 27.0929 7.34161 27.0929 8.56952C27.0929 10.8001 25.5674 12.9168 24.9192 13.1214C24.2289 12.9034 22.7454 10.759 22.7454 8.56952C22.7456 7.34641 23.8418 5.48415 24.9203 4.03913ZM19.1252 9.78227C19.9484 10.8838 21.2979 12.9442 21.2979 14.3126C21.2979 16.56 19.7654 18.662 19.1241 18.8645C18.4348 18.6467 16.9504 16.5035 16.9504 14.3126C16.9504 13.0895 18.0467 11.2273 19.1252 9.78227ZM13.3302 15.5253C14.1539 16.6276 15.5029 18.6875 15.5029 20.0557C15.5029 22.2951 13.9734 24.4041 13.3291 24.6075C12.6398 24.3897 11.1554 22.2466 11.1554 20.0557C11.1555 18.8328 12.2517 16.9704 13.3302 15.5253ZM7.53415 30.3507C6.84481 30.1329 5.36041 27.9897 5.36041 25.7988C5.36041 24.5758 6.45666 22.7136 7.53517 21.2684C8.35885 22.3707 9.70782 24.4306 9.70782 25.7988C9.70782 28.0429 8.17662 30.1476 7.53415 30.3507ZM14.3043 34.6627C12.0976 34.6627 9.9314 33.1929 9.71121 32.5084C9.92715 31.8363 12.0837 30.3541 14.3043 30.3541C15.6793 30.3541 17.7577 31.69 18.8756 32.5094C17.4201 33.5777 15.5434 34.6627 14.3043 34.6627ZM20.0994 28.9195C17.8927 28.9195 15.7265 27.4498 15.5063 26.7653C15.7123 26.1249 17.8198 24.611 20.0994 24.611C21.4744 24.611 23.5524 25.9467 24.6692 26.7653C23.2111 27.834 21.3329 28.9195 20.0994 28.9195ZM25.8944 23.1764C23.6877 23.1764 21.5214 21.7065 21.3014 21.0221C21.507 20.3827 23.6355 18.8679 25.8944 18.8679C27.2695 18.8679 29.3476 20.2034 30.4657 21.0231C29.0102 22.0915 27.1333 23.1764 25.8944 23.1764ZM31.6894 17.4333C29.4827 17.4333 27.3164 15.9636 27.0964 15.279C27.3005 14.6438 29.4101 13.1247 31.6894 13.1247C32.9235 13.1247 34.8027 14.2112 36.2607 15.28C34.8053 16.3483 32.9284 17.4333 31.6894 17.4333Z" fill="#2A2A2A"/>
</g>
</svg>
