<svg width="22" height="18" viewBox="0 0 22 18" fill="none" xmlns="http://www.w3.org/2000/svg">
<path fill-rule="evenodd" clip-rule="evenodd" d="M20.9 1.88398C21.5448 2.59646 21.7724 4.20898 21.7724 4.20898C21.7724 4.20898 22 6.12149 22 8.03396V9.79647C22 11.6715 21.7724 13.584 21.7724 13.584C21.7724 13.584 21.5448 15.1965 20.9 15.909C20.1064 16.7649 19.2099 16.8407 18.7651 16.8784C18.7422 16.8803 18.7204 16.8822 18.7 16.884C15.6276 17.1465 11 17.1465 11 17.1465C11 17.1465 5.27239 17.109 3.52761 16.9215C3.43489 16.9004 3.32072 16.8845 3.19089 16.8665C2.63023 16.7887 1.77759 16.6703 1.1 15.909C0.455211 15.1965 0.227605 13.584 0.227605 13.584C0.227605 13.584 0 11.709 0 9.79652V8.034C0 6.12149 0.227605 4.20898 0.227605 4.20898C0.227605 4.20898 0.417227 2.59651 1.1 1.88398C1.8936 1.0281 2.79011 0.952229 3.23491 0.914587C3.25783 0.912647 3.27955 0.910809 3.3 0.908971C6.37239 0.683995 11 0.646484 11 0.646484C11 0.646484 15.6276 0.683995 18.7 0.908971C18.7317 0.911819 18.7664 0.914451 18.8039 0.917293C19.2606 0.951886 20.1289 1.01766 20.9 1.88398ZM8.34483 13.2465V5.10898L15.5517 9.27151L8.34483 13.2465Z" fill="white"/>
</svg>
